<?xml version="1.0" standalone="no"?>
<!DOCTYPE svg PUBLIC "-//W3C//DTD SVG 1.1//EN" "http://www.w3.org/Graphics/SVG/1.1/DTD/svg11.dtd" >
<svg xmlns="http://www.w3.org/2000/svg" version="1.1">
<metadata></metadata>
<defs>
<font id="quicksandbold" horiz-adv-x="1275" >
<font-face units-per-em="2048" ascent="1638" descent="-410" />
<missing-glyph horiz-adv-x="573" />
<glyph unicode="&#xfb01;" horiz-adv-x="1337" d="M61 963q0 49 33 80.5t82 31.5h111v94q0 154 105.5 250.5t303.5 96.5q76 0 132.5 -31t56.5 -94q0 -49 -29 -80t-70 -31q-10 0 -21 2t-24 4q-49 12 -82 12q-69 0 -98 -39.5t-29 -87.5v-96h187q49 0 82 -31.5t33 -80.5t-33 -81t-82 -32h-187v-725q0 -53 -34.5 -89t-87.5 -36 t-88 36t-35 89v725h-111q-49 0 -82 31.5t-33 81.5zM967 1331v39q0 57 30.5 80t98.5 23q72 0 100.5 -23t28.5 -80v-39q0 -59 -30 -80.5t-101 -21.5q-70 0 -98.5 22.5t-28.5 79.5zM973 125v846q0 53 34.5 89t88.5 36q53 0 88 -36t35 -89v-846q0 -53 -35 -89t-88 -36t-88 36 t-35 89z" />
<glyph unicode="&#xfb02;" horiz-adv-x="1406" d="M61 963q0 49 33 80.5t82 31.5h111v94q0 154 105.5 250.5t303.5 96.5q76 0 132.5 -31t56.5 -94q0 -49 -29 -80t-70 -31q-10 0 -21 2t-24 4q-49 12 -82 12q-69 0 -98 -39.5t-29 -87.5v-96h187q49 0 82 -31.5t33 -80.5t-33 -81t-82 -32h-187v-725q0 -53 -34.5 -89t-87.5 -36 t-88 36t-35 89v725h-111q-49 0 -82 31.5t-33 81.5zM1008 125v1266q0 53 35.5 89t89.5 36q51 0 85.5 -36t34.5 -89v-1266q0 -53 -35.5 -89t-89.5 -36q-51 0 -85.5 36t-34.5 89z" />
<glyph horiz-adv-x="0" />
<glyph unicode="&#xd;" horiz-adv-x="573" />
<glyph horiz-adv-x="0" />
<glyph horiz-adv-x="0" />
<glyph unicode=" "  horiz-adv-x="573" />
<glyph unicode="&#x09;" horiz-adv-x="573" />
<glyph unicode="&#xa0;" horiz-adv-x="573" />
<glyph unicode="!" horiz-adv-x="546" d="M137 123v35q0 59 32 91t91 32h27q59 0 91 -32t32 -91v-35q0 -59 -32 -91t-91 -32h-27q-59 0 -91 31.5t-32 91.5zM139 1284q-4 63 34 106.5t99 43.5t100.5 -43t33.5 -107l-58 -754q-6 -78 -74 -77q-69 -1 -75 77z" />
<glyph unicode="&#x22;" horiz-adv-x="880" d="M70 905l32 430q9 99 107 99h59q45 0 68.5 -20.5t23.5 -55.5q0 -18 -6 -41l-139 -428q-25 -68 -86 -68q-33 0 -48 21.5t-11 62.5zM518 907l35 428q10 99 106 99h60q45 0 68.5 -19.5t23.5 -54.5q0 -20 -8 -43l-139 -428q-25 -68 -86 -68q-66 0 -60 86z" />
<glyph unicode="#" horiz-adv-x="1419" d="M74 440q0 45 31.5 74t78.5 29h111l61 356h-96q-47 0 -78.5 32t-31.5 79q0 45 31.5 73.5t78.5 28.5h131l41 234q6 39 34 63.5t69 24.5q49 0 78.5 -31t29.5 -80q0 -18 -2 -27l-31 -184h334l41 234q6 41 35 64.5t70 23.5q47 0 76.5 -32t29.5 -81q0 -16 -2 -25l-31 -184h72 q47 0 79 -31.5t32 -79.5q0 -45 -32 -73.5t-79 -28.5h-109l-61 -356h96q47 0 79 -32t32 -79q0 -45 -32 -73.5t-79 -28.5h-133l-41 -242q-6 -39 -33.5 -63.5t-68.5 -24.5q-49 0 -79 30.5t-30 80.5q0 18 2 26l33 193h-336l-41 -242q-6 -41 -34.5 -64.5t-69.5 -23.5 q-47 0 -77 31.5t-30 81.5q0 16 2 24l33 193h-74q-47 0 -78.5 31.5t-31.5 78.5zM512 543h336l61 356h-336z" />
<glyph unicode="$" horiz-adv-x="1222" d="M82 250q0 47 35 83t84 36q39 0 69 -25q63 -51 121 -81t125 -40v400q-412 76 -412 411q0 170 115 279.5t297 134.5v68q0 53 36 88.5t89 35.5q51 0 86 -35.5t35 -88.5v-76q174 -31 287 -127q59 -47 59 -109q0 -47 -35 -83t-82 -36q-31 0 -55 19q-61 51 -174 88v-379 q199 -47 289 -138t90 -267q0 -158 -106.5 -266.5t-272.5 -145.5v-127q0 -53 -36 -89t-89 -36q-51 0 -86 36t-35 89v115q-111 10 -202 47t-177 110q-55 49 -55 109zM346 1044q0 -67 43 -109t127 -67v340q-84 -16 -127 -59t-43 -105zM762 242q59 24 96 64t37 87q0 57 -33 99.5 t-100 70.5v-321z" />
<glyph unicode="%" horiz-adv-x="1671" d="M61 1053q0 113 43 204t119 143t174 52t174 -52t118 -143.5t42 -203.5q0 -111 -44 -202t-121 -143.5t-169 -52.5q-96 0 -173 52.5t-120 143.5t-43 202zM266 1053q0 -94 35 -154.5t96 -60.5q60 0 94.5 60t34.5 155q0 96 -33.5 155.5t-95.5 59.5q-59 0 -95 -60.5t-36 -154.5 zM315 96q0 27 21 62l815 1231q37 49 84 49q37 0 71.5 -29t34.5 -72q0 -27 -20 -61l-815 -1231q-37 -49 -84 -49q-37 0 -72 28.5t-35 71.5zM940 377q0 113 43 204t119 143t174 52t174 -52t118 -143.5t42 -203.5q0 -111 -44 -202t-121 -143t-169 -52t-169 52t-122 143t-45 202 zM1145 377q0 -94 34.5 -154.5t96.5 -60.5q59 0 94 60.5t35 154.5q0 96 -34 155.5t-95 59.5q-59 0 -95 -60.5t-36 -154.5z" />
<glyph unicode="&#x26;" horiz-adv-x="1452" d="M61 428q0 303 301 436q-39 53 -59 102.5t-20 104.5q0 102 55 189.5t156.5 140.5t234.5 53q141 0 255 -48t153 -124q18 -37 18 -80q0 -41 -29.5 -68.5t-76.5 -27.5q-53 0 -80 37q-43 57 -101.5 81.5t-138.5 24.5q-88 0 -138 -47t-50 -119q0 -66 50 -132t138 -152 q57 -57 57 -58q66 -72 232 -229q41 92 57 203q4 35 26.5 52t72.5 17q47 0 77.5 -35.5t30.5 -86.5l-2 -21q-23 -154 -92 -287q82 -72 160 -145q28 -27 40.5 -51.5t12.5 -57.5q0 -35 -26.5 -69.5t-74.5 -34.5q-45 0 -69 20l-113 97l-65 57q-190 -190 -482 -190 q-141 0 -258.5 62t-184.5 165.5t-67 220.5zM311 465q0 -104 77 -179t241 -75q145 0 256 106q-205 184 -340 340l-37 43q-111 -33 -154 -90t-43 -145z" />
<glyph unicode="'" horiz-adv-x="434" d="M70 905l32 430q9 99 107 99h63q45 0 69 -19.5t24 -54.5q0 -20 -9 -43l-139 -428q-25 -68 -88 -68q-33 0 -48 21.5t-11 62.5z" />
<glyph unicode="(" horiz-adv-x="731" d="M61 530q0 270 124 501t358 386q25 16 55 17q45 0 73.5 -35t28.5 -72q0 -47 -43 -82q-174 -135 -261 -319.5t-87 -395.5q0 -215 86 -402t262 -312q43 -31 43 -82q0 -39 -30.5 -73t-71.5 -34q-30 1 -55 17q-233 156 -357.5 386t-124.5 500z" />
<glyph unicode=")" horiz-adv-x="731" d="M31 -266q0 47 43 82q174 135 261 319t87 395q0 215 -86 402.5t-262 312.5q-43 31 -43 82q0 39 30.5 73t71.5 34q31 0 55 -17q233 -156 357.5 -386t124.5 -501q0 -270 -124 -500.5t-358 -385.5q-25 -16 -55 -17q-45 0 -73.5 35t-28.5 72z" />
<glyph unicode="*" horiz-adv-x="743" d="M78 981q0 18 11 32.5t30 22.5l149 68q6 2 6 6t-6 6l-149 68q-20 8 -30.5 23.5t-10.5 33.5t10 35q18 33 55 33q20 0 39 -13l133 -98q6 -4 10.5 -2t2.5 8l-19 162q-2 31 16.5 51.5t49.5 20.5q29 0 46 -20.5t15 -51.5l-18 -162q-2 -6 2 -8t10 2l133 96q16 14 41 15 q33 0 53 -33q10 -14 11 -37q0 -18 -11.5 -32.5t-29.5 -22.5l-150 -68q-6 -2 -6 -6t6 -6l150 -68q20 -8 30.5 -23.5t10.5 -33.5t-11 -35q-18 -33 -55 -33q-20 0 -39 13l-133 98q-6 4 -10 2t-2 -8l18 -162q2 -31 -16.5 -51.5t-48.5 -20.5q-29 0 -46.5 20.5t-15.5 51.5l19 162 q2 6 -2 8t-11 -2l-133 -96q-16 -14 -41 -15q-33 0 -53 33q-10 16 -10 37z" />
<glyph unicode="+" horiz-adv-x="1183" d="M82 606q0 49 32.5 80t82.5 31h280v305q0 57 38 94t97 37q57 0 94 -37t37 -94v-305h287q49 0 82 -32t33 -81t-33 -80.5t-82 -31.5h-287v-269q0 -57 -37.5 -94t-95.5 -37q-57 0 -95 37t-38 94v269h-280q-49 0 -82 32.5t-33 81.5z" />
<glyph unicode="," horiz-adv-x="563" d="M57 78q0 41 31 76.5t76 57t88 21.5q90 0 141 -56t51 -161q0 -47 -34.5 -118.5t-90 -125t-114.5 -53.5q-45 0 -72 19.5t-27 62.5q0 33 16.5 46.5t36 19.5t27.5 10q57 31 58 82q0 23 -21.5 40t-56.5 17t-57 -14q-25 10 -38.5 26.5t-13.5 49.5z" />
<glyph unicode="-" horiz-adv-x="811" d="M102 629q0 51 36 86t89 35h357q53 0 89 -36t36 -89q0 -51 -36 -85t-89 -34h-357q-53 0 -89 34.5t-36 88.5z" />
<glyph unicode="." horiz-adv-x="509" d="M119 125v35q0 59 31.5 91t91.5 32h26q59 0 91 -32t32 -91v-35q0 -59 -31.5 -91t-91.5 -32h-26q-60 0 -91.5 32t-31.5 91z" />
<glyph unicode="/" horiz-adv-x="1163" d="M63 -172q0 25 13 49l831 1702q14 29 38 45t52 16q39 0 73 -29.5t34 -72.5q0 -25 -12 -49l-830 -1702q-14 -29 -37.5 -45t-52.5 -16q-39 0 -74 29.5t-35 72.5z" />
<glyph unicode="0" horiz-adv-x="1257" d="M82 717q0 219 63.5 386t187.5 259t296 92t296 -92t187.5 -259t63.5 -386t-63.5 -386t-187.5 -259t-296 -92t-296 92t-187.5 259t-63.5 386zM348 717q0 -242 75 -367t206 -125t205.5 125t74.5 367t-74.5 366.5t-205.5 124.5t-206 -125t-75 -366z" />
<glyph unicode="1" horiz-adv-x="745" d="M10 1124q0 33 17.5 61.5t46.5 45.5l309 184q35 18 88 19q51 0 86 -36t35 -89v-1184q0 -53 -39 -89t-96 -36t-94 36t-37 89v971l-127 -78q-31 -18 -66 -19q-51 0 -87 39t-36 86z" />
<glyph unicode="2" horiz-adv-x="1097" d="M96 1147q0 31 20.5 62.5t61.5 72.5q78 78 180.5 125t196.5 47q135 0 237.5 -57.5t158 -157.5t55.5 -227q0 -125 -67 -257t-179 -253l-260 -277h422q49 0 81.5 -32.5t32.5 -81.5q0 -47 -32.5 -79t-81.5 -32h-697q-53 0 -83.5 33t-30.5 84t36 90l447 477q76 82 120 165 t44 152q0 92 -65.5 160t-151.5 68q-59 0 -120 -40t-110 -106q-37 -49 -94 -49q-45 0 -83 35t-38 78z" />
<glyph unicode="3" horiz-adv-x="1069" d="M61 1323q0 47 33 79t82 32h627q61 0 94 -34t33 -89q0 -49 -49 -99l-275 -303q113 -4 200 -65.5t134 -160.5t47 -212q0 -150 -67.5 -261.5t-190.5 -170.5t-287 -59q-74 0 -147.5 18t-128.5 49q-76 41 -76 111q0 49 35 90t84 41q41 0 88 -31q88 -68 195 -68q63 0 120.5 32 t93 92.5t35.5 138.5q0 111 -66.5 172t-160.5 61q-41 0 -71.5 -8t-36.5 -10q-53 -16 -89 -17q-45 0 -71.5 32t-26.5 79q0 29 10.5 51.5t34.5 48.5l318 346h-406q-49 0 -82 33t-33 82z" />
<glyph unicode="4" horiz-adv-x="1449" d="M184 510q0 45 31 82l647 792q39 49 103 50q51 0 85.5 -36t34.5 -89v-695h86q50 0 82.5 -32.5t32.5 -81.5q0 -47 -32.5 -79t-82.5 -32h-86v-264q0 -53 -35.5 -89t-88.5 -36q-51 0 -86 36t-35 89v264h-533q-45 0 -84 36t-39 85zM508 614h332v410z" />
<glyph unicode="5" horiz-adv-x="1185" d="M119 199q0 37 31.5 66.5t82.5 29.5q37 0 93 -39q86 -53 151 -53q84 0 158 39t118 104.5t44 140.5q0 111 -76 180.5t-180 69.5q-47 0 -84 -12t-88 -37q-37 -18 -58.5 -26.5t-44.5 -8.5q-80 0 -113.5 43t-33.5 103q0 20 2 28l63 508q8 43 42 71t81 28h592q49 0 82 -33 t33 -82q0 -47 -33 -79t-82 -32h-508l-39 -297q39 23 98.5 37.5t112.5 14.5q135 0 245 -62.5t172 -171t62 -242.5q0 -137 -77.5 -253.5t-206.5 -185t-279 -68.5q-80 0 -165 24.5t-138 67.5q-25 20 -41 57t-16 70z" />
<glyph unicode="6" horiz-adv-x="1122" d="M82 539q0 150 52 329t190.5 338.5t375.5 227.5q25 6 48 6q53 0 87.5 -28t34.5 -87q0 -45 -29.5 -79t-78.5 -48q-129 -37 -238.5 -131t-161.5 -225q102 88 234 88q106 0 209.5 -64.5t169 -174t65.5 -236.5q0 -129 -64.5 -239t-173 -173t-239.5 -63q-141 0 -251.5 78.5 t-170 206.5t-59.5 274zM332 455q0 -106 66.5 -178t164.5 -72q96 0 164 71.5t68 178.5q0 106 -68 178t-164 72q-98 0 -164.5 -72t-66.5 -178z" />
<glyph unicode="7" horiz-adv-x="1165" d="M123 1323q0 47 32.5 79t82.5 32h712q54 0 93.5 -34t39.5 -87q0 -27 -12 -56l-539 -1189q-14 -37 -44.5 -57.5t-67.5 -20.5q-51 0 -89 34.5t-38 84.5q0 29 12 55l477 1044h-544q-49 0 -82 33t-33 82z" />
<glyph unicode="8" horiz-adv-x="1204" d="M123 428q0 197 199 320q-72 41 -118 110.5t-46 163.5q0 113 59 207t160.5 149.5t224.5 55.5t224.5 -55.5t159.5 -149.5t58 -207q0 -102 -48 -169t-119 -105q96 -58 150 -143t54 -177q0 -117 -64.5 -215t-174 -155.5t-240.5 -57.5t-240.5 57.5t-174 155.5t-64.5 215z M369 432q0 -86 67.5 -146.5t165.5 -60.5t166 60.5t68 146.5q0 88 -68 148.5t-166 60.5t-165.5 -60.5t-67.5 -148.5zM403 1018q0 -84 56.5 -138.5t142.5 -54.5q84 0 140.5 55.5t56.5 137.5t-56.5 136t-140.5 54q-86 0 -142.5 -54t-56.5 -136z" />
<glyph unicode="9" horiz-adv-x="1122" d="M82 985q0 129 64.5 238.5t173 173t239.5 63.5q141 0 252 -78.5t170 -206.5t59 -274q0 -150 -52 -329t-190.5 -338.5t-375.5 -227.5q-25 -6 -47 -6q-53 0 -88 27.5t-35 87.5q0 45 29.5 78.5t78.5 48.5q129 37 239 131t161 225q-102 -88 -234 -88q-106 0 -209.5 64.5 t-169 174t-65.5 236.5zM328 985q0 -106 67.5 -178t163.5 -72q98 0 165 72t67 178t-67 178t-165 72q-96 0 -163.5 -71.5t-67.5 -178.5z" />
<glyph unicode=":" horiz-adv-x="559" d="M143 123v35q0 59 32 91t91 32h27q59 0 91 -32t32 -91v-35q0 -59 -32 -91t-91 -32h-27q-59 0 -91 31.5t-32 91.5zM143 924v34q0 59 32 91t91 32h27q59 0 91 -31.5t32 -91.5v-34q0 -59 -32 -91t-91 -32h-27q-59 0 -91 31.5t-32 91.5z" />
<glyph unicode=";" horiz-adv-x="602" d="M123 78q0 41 30.5 76.5t75.5 57t88 21.5q90 0 141.5 -56t51.5 -161q0 -47 -35 -118.5t-90 -125t-115 -53.5q-45 0 -71.5 19.5t-26.5 62.5q0 33 16.5 46.5t36 19.5t27.5 10q57 31 57 82q0 23 -21.5 40t-56.5 17t-57 -14q-25 10 -38 26.5t-13 49.5zM197 924v34 q0 59 31.5 91t90.5 32h27q59 0 91 -31.5t32 -91.5v-34q0 -59 -31.5 -91t-91.5 -32h-27q-59 0 -90.5 31.5t-31.5 91.5z" />
<glyph unicode="&#x3c;" horiz-adv-x="1075" d="M51 528q0 31 12.5 55.5t36.5 39.5l666 383q59 35 94 34q41 0 77 -39.5t36 -82.5q0 -47 -45 -74l-545 -316l543 -323q45 -25 45 -80q0 -47 -34 -86t-69 -39q-20 0 -46.5 13.5t-55.5 29.5l-666 391q-25 14 -37 40t-12 54z" />
<glyph unicode="=" horiz-adv-x="1267" d="M102 424q0 47 35 79t86 32h821q51 0 86 -32t35 -79t-34.5 -81t-86.5 -34h-821q-51 0 -86 34t-35 81zM102 821q0 47 35 79t86 32h821q51 0 86 -32t35 -79t-34.5 -80.5t-86.5 -33.5h-821q-51 0 -86 33.5t-35 80.5z" />
<glyph unicode="&#x3e;" horiz-adv-x="1075" d="M102 123q0 47 45 74l545 315l-542 324q-45 25 -46 79q0 47 34 86t69 39q20 0 47 -13t55 -30l666 -391q24 -14 36.5 -39.5t12.5 -54.5q0 -31 -12.5 -55.5t-36.5 -38.5l-666 -383q-59 -35 -94 -35q-41 0 -77 40t-36 83z" />
<glyph unicode="?" horiz-adv-x="1079" d="M59 1270q0 47 39 86q74 76 173.5 118t211.5 42q139 0 254 -63.5t182.5 -175.5t67.5 -245q0 -197 -112.5 -311.5t-299.5 -142.5q-10 -4 -10 -11v-75q0 -53 -34.5 -89t-88.5 -36q-53 0 -88 35.5t-35 89.5v155q0 53 35 89t88 36q135 0 217 63.5t82 196.5q0 102 -73.5 170 t-184.5 68q-113 0 -198 -76q-49 -45 -103 -45q-39 0 -69 25q-53 41 -54 96zM309 123v35q0 59 32 91t91 32h27q59 0 91 -32t32 -91v-35q0 -59 -32 -91t-91 -32h-27q-59 0 -91 31.5t-32 91.5z" />
<glyph unicode="@" horiz-adv-x="1974" d="M82 422q0 311 145.5 545.5t395 360.5t557.5 126q225 0 387 -86t244.5 -231.5t82.5 -325.5q0 -172 -67.5 -333t-192.5 -263t-288 -102q-84 0 -151 47t-83 121q-96 -168 -303 -168q-78 0 -148.5 41t-113.5 118.5t-43 178.5q0 129 66.5 268t180 232t242.5 93 q70 0 126.5 -37.5t84.5 -105.5l8 55q6 33 34 57.5t79 24.5q111 0 111 -88q0 -20 -2 -32l-82 -517q-2 -12 -2 -32q0 -49 23.5 -74t60.5 -25q80 0 147.5 79t108.5 205t41 257q0 143 -68 253t-192.5 170t-290.5 60q-262 0 -475 -104.5t-336 -302t-123 -465.5q0 -156 63.5 -291 t198.5 -219t340 -84q156 0 254 29.5t207 91.5q23 12 39 12q41 0 61 -51q6 -12 6 -25q0 -45 -78 -86q-125 -63 -231.5 -97t-257.5 -34q-262 0 -434 106.5t-252 277.5t-80 370zM733 455q0 -78 37 -118t102 -40q66 0 120.5 40t90 96t50.5 106q32 97 32 163q0 84 -45 121 t-116 37q-78 0 -140.5 -63.5t-96.5 -158.5t-34 -183z" />
<glyph unicode="A" horiz-adv-x="1308" d="M20 96q0 18 7 39l510 1225q17 42 49 64q28 19 61 19q6 0 12 -1q37 0 69 -21.5t46 -60.5l504 -1200q10 -26 10 -49q0 -53 -34.5 -87t-79.5 -34q-37 0 -67 22.5t-46 61.5l-107 248h-610l-106 -250q-14 -39 -44 -60.5t-65 -21.5q-53 0 -81 28.5t-28 77.5zM444 557h410 l-207 479z" />
<glyph unicode="B" horiz-adv-x="1341" d="M154 125v1184q0 53 35.5 89t89.5 36h516q389 0 389 -365q0 -92 -44 -162.5t-126 -111.5q108 -43 177 -131.5t69 -227.5q0 -244 -139.5 -340t-332.5 -96h-509q-53 0 -89 36t-36 89zM420 236h368q97 0 151 51t54 149q0 121 -63.5 158t-155.5 37h-354v-395zM420 872h344 q61 0 107.5 41t46.5 111q0 84 -42 126t-118 42h-338v-320z" />
<glyph unicode="C" horiz-adv-x="1284" d="M82 717q0 209 95 374.5t263 259t379 93.5q182 0 338 -80q64 -32 64 -104q0 -43 -31 -84q-33 -43 -84 -43q-35 0 -70 18q-100 47 -217 47q-143 0 -249.5 -60.5t-164 -170t-57.5 -250.5q0 -242 130 -367t341 -125q125 0 217 47q37 16 66 17q53 0 90 -45q31 -39 31 -84 q0 -33 -16.5 -59.5t-47.5 -41.5q-158 -79 -336 -79h-4q-201 0 -368.5 85t-268 250.5t-100.5 401.5z" />
<glyph unicode="D" horiz-adv-x="1464" d="M154 125v1184q0 53 35.5 89t89.5 36h489q193 0 331 -95.5t210.5 -258t72.5 -363.5t-72.5 -364t-210.5 -258t-331 -95h-489q-53 0 -89 36t-36 89zM410 236h338q184 0 276 136t92 345t-93 345t-275 136h-338v-962z" />
<glyph unicode="E" horiz-adv-x="1171" d="M154 125v1184q0 53 35.5 89t89.5 36h686q53 0 89 -34t36 -87q0 -51 -35 -83t-90 -32h-555v-348h462q53 0 89 -34t36 -87q0 -51 -34.5 -83t-90.5 -32h-462v-378h555q53 0 89 -36t36 -83q0 -51 -36 -84t-89 -33h-686q-53 0 -89 36t-36 89z" />
<glyph unicode="F" horiz-adv-x="1150" d="M154 125v1184q0 53 35.5 89t89.5 36h665q53 0 89 -34t36 -87q0 -45 -36 -80t-89 -35h-534v-360h442q53 0 89 -34t36 -87q0 -45 -36 -80t-89 -35h-442v-477q0 -53 -38 -89t-89 -36q-57 0 -93 35t-36 90z" />
<glyph unicode="G" horiz-adv-x="1425" d="M82 717q0 201 100.5 369.5t272.5 268t374 99.5q203 0 353 -82q31 -16 46 -42.5t15 -57.5q0 -51 -33.5 -89t-83.5 -38q-31 0 -67 16q-111 47 -230 47q-131 0 -241.5 -66.5t-175 -179t-64.5 -245.5t64.5 -246t175 -179.5t241.5 -66.5q57 0 123 10.5t115 26.5v266h-193 q-53 0 -88.5 35t-35.5 88t35.5 88t88.5 35h336q54 0 88.5 -36t34.5 -89v-434q0 -72 -63 -111q-199 -124 -437 -124h-4q-203 0 -374.5 99t-272 268t-100.5 370z" />
<glyph unicode="H" horiz-adv-x="1472" d="M154 125v1184q0 53 36.5 89t94.5 36q51 0 88 -36t37 -89v-471h653v471q0 53 39 89t90 36q57 0 92 -35t35 -90v-1184q0 -53 -37 -89t-94 -36q-51 0 -88 36t-37 89v477h-653v-477q0 -53 -39 -89t-90 -36q-55 0 -91 36t-36 89z" />
<glyph unicode="I" horiz-adv-x="563" d="M154 125v1184q0 53 36.5 89t94.5 36q51 0 88 -36t37 -89v-1184q0 -53 -39 -89t-90 -36q-55 0 -91 36t-36 89z" />
<glyph unicode="J" horiz-adv-x="1130" d="M121 318q39 36 80 36q53 0 114 -61q39 -37 80 -52.5t92 -15.5q59 0 113.5 31t87.5 83t33 110v860q0 53 39 89t90 36q57 0 92 -35t35 -90v-860q0 -123 -65.5 -231.5t-178 -173t-246.5 -64.5q-116 0 -216.5 48t-164.5 134q-24 36 -24 68q0 52 39 88z" />
<glyph unicode="K" horiz-adv-x="1341" d="M154 125v1184q0 53 36.5 89t94.5 36q55 0 90 -35t35 -90v-557l655 645q47 47 100 47q47 0 80 -39t33 -82t-37 -80l-446 -426l456 -604q13 -16 21 -39.5t8 -44.5q0 -55 -42 -92t-97 -37q-27 0 -51.5 12.5t-40.5 34.5l-445 586l-194 -187v-321q0 -55 -36 -90t-93 -35 q-55 0 -91 36t-36 89z" />
<glyph unicode="L" horiz-adv-x="1150" d="M154 125v1184q0 53 36.5 89t94.5 36q51 0 88 -36t37 -89v-1069h534q53 0 89 -34t36 -87q0 -51 -36 -85t-89 -34h-665q-53 0 -89 36t-36 89z" />
<glyph unicode="M" horiz-adv-x="1677" d="M154 125v1186q0 51 37.5 88t91.5 37q31 0 61.5 -15.5t46.5 -40.5l447 -686l458 686q16 25 44 40.5t57 15.5q51 0 89 -36t38 -89v-1186q0 -53 -35 -89t-92 -36t-93 35t-36 90v825l-338 -516q-20 -25 -47 -40t-56 -13q-27 -2 -53 13.5t-47 39.5l-338 535v-844 q0 -55 -32.5 -90t-86.5 -35q-51 0 -83.5 36t-32.5 89z" />
<glyph unicode="N" horiz-adv-x="1505" d="M154 115v1194q0 53 35.5 89t89.5 36q31 0 60.5 -12.5t43.5 -32.5l745 -951v881q0 49 32 82t81 33t80 -33t31 -82v-1194q0 -53 -36 -89t-89 -36q-29 0 -56.5 9t-40.5 26l-751 954v-874q0 -49 -32 -82t-83 -33q-49 0 -79.5 33t-30.5 82z" />
<glyph unicode="O" horiz-adv-x="1554" d="M82 717q0 203 89 371.5t248 267t357 98.5q199 0 357.5 -98.5t249 -267t90.5 -371.5t-90.5 -372t-249 -267t-357.5 -98t-357.5 98t-247.5 267t-89 372zM348 717q0 -137 54.5 -250t151.5 -177.5t222 -64.5q123 0 221.5 65.5t153.5 177.5t55 249t-55 248.5t-153.5 177 t-221.5 65.5q-125 0 -222 -64.5t-151.5 -177t-54.5 -249.5z" />
<glyph unicode="P" horiz-adv-x="1234" d="M154 125v1184q0 53 35.5 89t89.5 36h466q105 0 199 -62.5t151.5 -168t57.5 -230.5q0 -123 -57.5 -229.5t-151.5 -169t-199 -62.5h-356v-387q0 -55 -32.5 -90t-86.5 -35q-51 0 -83.5 36t-32.5 89zM389 745h356q39 0 77 33t61.5 85t23.5 110q0 57 -23.5 109.5t-61.5 84 t-77 31.5h-356v-453z" />
<glyph unicode="Q" horiz-adv-x="1546" d="M82 717q0 203 89 371.5t248 267t357 98.5q199 0 357.5 -98.5t249 -267t90.5 -371.5q0 -176 -69 -327.5t-193 -255t-283 -138.5l-125 -47q47 -6 87 -22.5t91 -45.5q63 -35 110.5 -51t106.5 -16q51 0 88 15t72 44q12 10 36.5 29.5t45 30t41.5 10.5q43 0 79.5 -37t36.5 -82 q0 -59 -68.5 -113.5t-167.5 -87.5t-177 -33q-131 0 -208 26t-155 71q-51 31 -83.5 44t-78.5 13q-25 0 -41 -6t-43 -19q-27 -14 -49 -21t-57 -7q-49 0 -85 38t-36 85q0 80 72 106l203 76q-160 35 -283 138.5t-190.5 255t-67.5 327.5zM348 717q0 -137 54.5 -250t151.5 -177.5 t222 -64.5q123 0 221.5 65.5t153.5 177.5t55 249t-55 248.5t-153.5 177t-221.5 65.5q-125 0 -222 -64.5t-151.5 -177t-54.5 -249.5z" />
<glyph unicode="R" horiz-adv-x="1406" d="M154 125v1184q0 53 35.5 89t89.5 36h589q106 0 200.5 -57.5t151 -158t56.5 -225.5q0 -102 -55.5 -199.5t-143.5 -154.5q129 -90 142 -242q6 -33 6 -63q8 -63 16 -91t37 -42q27 -17 42 -43.5t15 -55.5q0 -37 -24 -67q-31 -37 -94 -37q-49 0 -91 22q-147 84 -147 342 q0 74 -48 117t-138 43h-383v-397q0 -55 -30 -90t-79 -35q-59 0 -103 36t-44 89zM410 733h448q37 0 72 35t57.5 93.5t22.5 125.5q0 57 -22.5 105.5t-57.5 77t-72 28.5h-448v-465z" />
<glyph unicode="S" horiz-adv-x="1222" d="M82 250q0 47 35 83t84 36q39 0 69 -25q82 -68 160 -98.5t184 -30.5q115 0 198 51t83 127q0 92 -82 144.5t-260 78.5q-449 66 -449 418q0 129 68 224.5t184.5 145.5t259.5 50q129 0 243 -39t190 -102q59 -47 59 -109q0 -47 -35 -83t-82 -36q-31 0 -55 19q-53 43 -148.5 79 t-171.5 36q-129 0 -199.5 -48.5t-70.5 -126.5q0 -88 73 -133t228 -73q176 -31 281.5 -79t159 -131t53.5 -220q0 -129 -73 -226.5t-193.5 -149.5t-260.5 -52q-147 0 -261.5 36.5t-215.5 124.5q-55 49 -55 109z" />
<glyph unicode="T" horiz-adv-x="1282" d="M61 1317q0 51 36 84t89 33h910q55 0 90 -33t35 -86t-35 -85t-90 -32h-322v-1073q0 -53 -39 -89t-96 -36t-94 36t-37 89v1073h-322q-55 0 -90 33t-35 86z" />
<glyph unicode="U" horiz-adv-x="1443" d="M154 569v742q0 53 36.5 89t94.5 36q49 0 86 -36t37 -89v-742q0 -98 43 -175t115.5 -117.5t156.5 -40.5q88 0 165 40.5t123 117.5t46 175v742q0 55 30.5 90t83.5 35q54 0 86.5 -35t32.5 -90v-742q0 -170 -71.5 -301t-200.5 -204.5t-295 -73.5t-296 73.5t-201.5 204.5 t-71.5 301z" />
<glyph unicode="V" horiz-adv-x="1388" d="M61 1317q0 55 41 89t84 34q35 0 66 -20.5t47 -59.5l412 -969l376 969q16 37 47 57.5t66 20.5q51 0 89 -35t38 -84q0 -27 -12 -55l-506 -1184q-18 -39 -51 -59.5t-70 -20.5q-35 2 -64.5 21.5t-45.5 56.5l-506 1188q-10 20 -11 51z" />
<glyph unicode="W" horiz-adv-x="1931" d="M33 1307q0 57 42 95t93 38q41 0 73.5 -21.5t45.5 -58.5l305 -926l266 639q16 37 47 59q28 20 63 19h7h7q36 1 62 -19q30 -22 46 -59l251 -633l304 920q12 37 45.5 58.5t74.5 21.5q50 0 91.5 -38t41.5 -95q0 -18 -6 -41l-403 -1188q-12 -35 -43 -55.5t-68 -22.5 q-37 0 -69.5 20.5t-51.5 59.5l-290 661l-293 -661q-18 -39 -51 -59.5t-70 -20.5q-37 2 -67.5 22.5t-43.5 55.5l-403 1188q-6 23 -6 41z" />
<glyph unicode="X" horiz-adv-x="1341" d="M92 98q0 45 31 84l395 535l-395 524q-27 33 -27 74q0 51 39 88t86 37q59 0 101 -54l360 -479l352 469q20 29 47 44.5t54 15.5q45 0 79.5 -36t34.5 -79q0 -39 -26 -74l-400 -526l400 -533q24 -32 24 -72q0 -56 -39 -91t-84 -35q-59 0 -100 53l-365 485l-354 -481 q-41 -57 -102 -57q-45 0 -78 32.5t-33 75.5z" />
<glyph unicode="Y" horiz-adv-x="1220" d="M35 1315q0 53 42 89t89 36q57 0 100 -58l361 -497l338 493q43 61 102 62q49 0 86 -37t37 -90q0 -41 -23 -76l-428 -612v-500q0 -53 -34.5 -89t-83.5 -36q-51 0 -87 36t-36 89v528l-426 566q-37 49 -37 96z" />
<glyph unicode="Z" horiz-adv-x="1327" d="M72 121q0 39 28 78l777 999h-592q-55 0 -90 33t-35 86q0 51 35.5 84t89.5 33h837q49 0 91 -35t42 -89q0 -38 -28 -75l-778 -999h653q55 0 90 -32t35 -85q0 -51 -36 -85t-89 -34h-899q-53 0 -92 37t-39 84z" />
<glyph unicode="[" horiz-adv-x="833" d="M164 -291v1626q0 43 27.5 71t70.5 28h432q43 0 71 -28t28 -71q0 -41 -28 -68.5t-71 -27.5h-295v-1434h295q43 0 71 -27.5t28 -70.5q0 -41 -28 -68.5t-71 -27.5h-432q-43 0 -70.5 27.5t-27.5 70.5z" />
<glyph unicode="\" horiz-adv-x="1163" d="M59 1538q0 43 34 72.5t73 29.5q29 0 52.5 -16t37.5 -45l831 -1702q12 -25 13 -49q0 -45 -36 -73.5t-73 -28.5q-28 0 -52 16t-38 45l-829 1702q-12 25 -13 49z" />
<glyph unicode="]" horiz-adv-x="833" d="M41 -291q0 41 27.5 68.5t70.5 27.5h295v1434h-295q-43 0 -70.5 27.5t-27.5 70.5q0 41 27.5 69t70.5 28h432q43 0 71 -28t28 -71v-1626q0 -43 -28 -70.5t-71 -27.5h-432q-43 0 -70.5 27.5t-27.5 70.5z" />
<glyph unicode="^" horiz-adv-x="1265" d="M102 782q0 20 8.5 38t18.5 35t14 22l322 526q23 37 61.5 48t104.5 11q70 0 108.5 -12t61.5 -47l323 -529q4 -8 16.5 -26.5t18.5 -34.5t6 -31q0 -51 -39 -90t-92 -39q-70 0 -92 39l-307 500l-311 -500q-27 -39 -93 -39q-51 0 -90 38t-39 91z" />
<glyph unicode="_" horiz-adv-x="1441" d="M102 -231q0 41 28 68.5t71 27.5h1040q43 0 70.5 -27.5t27.5 -70.5q0 -41 -27.5 -68t-70.5 -27h-1040q-43 0 -71 28t-28 69z" />
<glyph unicode="`" horiz-adv-x="530" d="M27 1458q0 43 34.5 72t73.5 29q47 0 101 -46l176 -155q29 -27 28 -55q0 -33 -23.5 -53.5t-62.5 -20.5q-22 0 -47 12l-205 109q-37 20 -56 48.5t-19 59.5z" />
<glyph unicode="a" d="M72 547q0 164 65.5 294t179 202.5t250.5 72.5q98 0 184.5 -36t145.5 -91v2q0 53 35 89t88 36t88 -34.5t35 -90.5v-866q0 -53 -35 -89t-88 -36t-87 35t-36 88q-51 -59 -138 -101t-184 -42q-141 0 -255.5 72.5t-181 201.5t-66.5 293zM307 547q0 -147 83 -244.5t216 -97.5 t217 97t84 245q0 147 -84 245.5t-217 98.5q-131 0 -215 -98.5t-84 -245.5z" />
<glyph unicode="b" d="M133 104v1287q0 53 35 89t88 36t88 -36t35 -89v-428q49 61 137 107t184 46q142 0 256.5 -72.5t181 -201.5t66.5 -293t-65.5 -294t-179 -202.5t-250.5 -72.5q-98 0 -185.5 39.5t-144.5 97.5v-13q0 -53 -35 -88.5t-88 -35.5t-88 34.5t-35 89.5zM369 549q0 -147 84 -245.5 t217 -98.5q131 0 215 98t84 246q0 147 -83 244.5t-216 97.5t-217 -97.5t-84 -244.5z" />
<glyph unicode="c" horiz-adv-x="1054" d="M72 547q0 166 68.5 295t191.5 201.5t278 72.5q174 0 280.5 -54t106.5 -144q0 -45 -26.5 -79t-69.5 -34q-33 0 -53.5 9t-40 24.5t-37.5 25.5q-20 10 -60 18.5t-65 8.5q-154 0 -241 -95.5t-87 -248.5q0 -147 88.5 -244.5t225.5 -97.5q100 0 149 24q12 6 34 21.5t40 24 t45 8.5q51 0 81 -33t30 -84q0 -49 -57.5 -92t-151.5 -68.5t-201 -25.5q-158 0 -277.5 73.5t-185 203.5t-65.5 290z" />
<glyph unicode="d" d="M72 547q0 164 65.5 294t179 202.5t250.5 72.5q98 0 184.5 -36t145.5 -91v402q0 53 35 89t88 36t88 -35t35 -90v-1266q0 -53 -35 -89t-88 -36t-87 35t-36 88q-51 -59 -138 -101t-184 -42q-141 0 -255.5 72.5t-181 201.5t-66.5 293zM307 547q0 -147 83 -244.5t216 -97.5 t217 97t84 245q0 147 -84 245.5t-217 98.5q-131 0 -215 -98.5t-84 -245.5z" />
<glyph unicode="e" horiz-adv-x="1187" d="M72 532q0 176 73.5 309.5t194.5 204t258 70.5q135 0 255 -73.5t191.5 -198.5t71.5 -271q-2 -49 -39 -79.5t-86 -30.5h-676q25 -121 113 -189.5t199 -68.5q84 0 131 15.5t74.5 32.5t37.5 23q37 18 70 19q43 0 73.5 -31t30.5 -71q0 -55 -57 -101q-57 -47 -153.5 -79.5 t-194.5 -32.5q-172 0 -300 71.5t-197.5 197.5t-69.5 283zM317 668h537v14q-8 86 -84 147.5t-172 61.5q-238 0 -281 -223z" />
<glyph unicode="f" horiz-adv-x="854" d="M61 963q0 49 33 80.5t82 31.5h111v94q0 154 105.5 250.5t303.5 96.5q76 0 132.5 -31t56.5 -94q0 -49 -29 -80t-70 -31q-10 0 -21 2t-24 4q-49 12 -82 12q-69 0 -98 -39.5t-29 -87.5v-96h187q49 0 82 -31.5t33 -80.5t-33 -81t-82 -32h-187v-725q0 -53 -34.5 -89t-87.5 -36 t-88 36t-35 89v725h-111q-49 0 -82 31.5t-33 81.5z" />
<glyph unicode="g" horiz-adv-x="1296" d="M72 547q0 164 66.5 294t182 202.5t257.5 72.5q104 0 194 -43t146 -104v22q0 53 34.5 89t87.5 36q54 0 88.5 -34.5t34.5 -90.5v-911q0 -250 -154.5 -370t-392.5 -120q-61 0 -168.5 20.5t-152.5 41.5q-100 43 -100 119q0 14 6 32q12 45 41.5 69t64.5 24q20 0 39 -7 q8 -2 101.5 -37.5t168.5 -35.5q152 0 227 60.5t75 170.5v98q-45 -63 -136.5 -114t-195.5 -51q-143 0 -261 72.5t-185.5 201.5t-67.5 293zM307 547q0 -147 86 -244.5t223 -97.5q138 0 225 97t87 245q0 147 -87 245.5t-225 98.5q-137 0 -223 -98.5t-86 -245.5z" />
<glyph unicode="h" horiz-adv-x="1200" d="M133 125v1266q0 53 35 89t88 36t88 -36t35 -89v-453q55 74 140 126t190 52q202 0 280 -124t78 -343v-524q0 -53 -35 -89t-88 -36t-88 36t-35 89v524q0 113 -44 177.5t-154 64.5q-115 0 -179.5 -68.5t-64.5 -173.5v-524q0 -53 -35 -89t-88 -36t-88 36t-35 89z" />
<glyph unicode="i" horiz-adv-x="483" d="M113 1331v39q0 57 30.5 80t98.5 23q72 0 100.5 -23t28.5 -80v-39q0 -59 -30 -80.5t-101 -21.5q-70 0 -98.5 22.5t-28.5 79.5zM119 125v846q0 53 34.5 89t88.5 36q53 0 88 -36t35 -89v-846q0 -53 -35 -89t-88 -36t-88 36t-35 89z" />
<glyph unicode="j" horiz-adv-x="563" d="M-41 -264q0 82 104 112q66 20 83.5 68.5t17.5 134.5v920q0 53 34.5 89t88.5 36q53 0 88 -36t35 -89v-991q0 -115 -44 -201t-121 -133t-171 -47q-49 0 -82 32.5t-33 81.5v23zM156 1331v39q0 57 30.5 80t98.5 23q72 0 100.5 -23t28.5 -80v-39q0 -59 -30 -80.5t-101 -21.5 q-70 0 -98.5 22.5t-28.5 79.5z" />
<glyph unicode="k" horiz-adv-x="1165" d="M154 125v1266q0 53 34.5 89t87.5 36t88 -36t35 -89v-758l439 424q39 39 90 39q45 0 80.5 -38t35.5 -77q0 -49 -49 -92l-309 -285l358 -389q39 -41 39 -92t-39.5 -86t-85.5 -35q-53 0 -90 41l-368 389l-101 -92v-215q0 -53 -34.5 -89t-88.5 -36q-53 0 -87.5 36t-34.5 89z " />
<glyph unicode="l" horiz-adv-x="552" d="M154 125v1266q0 53 35.5 89t89.5 36q51 0 85.5 -36t34.5 -89v-1266q0 -53 -35.5 -89t-89.5 -36q-51 0 -85.5 36t-34.5 89z" />
<glyph unicode="m" horiz-adv-x="1888" d="M133 125v846q0 53 35 89t88 36t88 -36t35 -89v-33q55 74 140 126t190 52q258 0 329 -225q47 86 142.5 155.5t216.5 69.5q202 0 280 -124t78 -343v-524q0 -53 -34.5 -89t-88.5 -36q-53 0 -88 36t-35 89v524q0 113 -44 177.5t-154 64.5q-115 0 -179.5 -68.5t-64.5 -173.5 v-524q0 -53 -35 -89t-88 -36t-88 36t-35 89v524q0 113 -44 177.5t-154 64.5q-115 0 -179.5 -68.5t-64.5 -173.5v-524q0 -53 -35 -89t-88 -36t-88 36t-35 89z" />
<glyph unicode="n" horiz-adv-x="1220" d="M133 125v846q0 53 35 89t88 36t88 -36t35 -89v-35q55 74 144 127t196 53q209 0 288.5 -124t79.5 -343v-524q0 -53 -34.5 -89t-87.5 -36t-88 36t-35 89v524q0 113 -47 177.5t-162 64.5q-119 0 -186.5 -68.5t-67.5 -173.5v-524q0 -53 -35 -89t-88 -36t-88 36t-35 89z" />
<glyph unicode="o" horiz-adv-x="1257" d="M72 547q0 164 73.5 294t200.5 202.5t283 72.5q154 0 281.5 -72.5t201.5 -202.5t74 -294t-74 -294t-202 -201.5t-281 -71.5q-156 0 -283 71.5t-200.5 201.5t-73.5 294zM317 547q0 -100 42 -178t113 -121t157 -43t156.5 43t112.5 120.5t42 178.5q0 100 -42 179t-112.5 122 t-156.5 43t-157 -43t-113 -122t-42 -179z" />
<glyph unicode="p" d="M133 -285v1256q0 53 35 89t88 36t88 -36t35 -89v-8q49 61 137 107t184 46q142 0 256.5 -72.5t181 -201.5t66.5 -293t-65.5 -294t-179 -202.5t-250.5 -72.5q-98 0 -185.5 39.5t-144.5 97.5v-402q0 -53 -35 -89t-88 -36t-88 35t-35 90zM369 549q0 -147 84 -245.5t217 -98.5 q131 0 215 98t84 246q0 147 -83 244.5t-216 97.5t-217 -97.5t-84 -244.5z" />
<glyph unicode="q" d="M72 547q0 164 65.5 294t179 202.5t250.5 72.5q100 0 186.5 -37t143.5 -92q6 47 40 78t83 31q53 0 88 -35t35 -90v-1256q0 -53 -35 -89t-88 -36t-88 36t-35 89v406q-51 -57 -138 -99t-184 -42q-141 0 -255.5 72.5t-181 201.5t-66.5 293zM307 547q0 -147 83 -244.5 t216 -97.5t217 97t84 245q0 147 -84 245.5t-217 98.5q-131 0 -215 -98.5t-84 -245.5z" />
<glyph unicode="r" horiz-adv-x="888" d="M133 125v846q0 53 35 89t88 36t88 -36t35 -89v-27q47 84 135 128t188 44q62 0 104 -34.5t42 -82.5q0 -63 -33 -95t-78 -32q-31 0 -69 15q-6 2 -28 8t-46 6q-53 0 -102.5 -32.5t-81 -99.5t-31.5 -159v-485q0 -53 -35 -89t-88 -36t-88 36t-35 89z" />
<glyph unicode="s" horiz-adv-x="987" d="M51 231q0 53 53 91q29 18 60 18q43 0 82 -39q61 -63 127.5 -94t161.5 -31q159 6 159 120q0 60 -54 91t-169 62q-119 33 -193.5 65.5t-129 99t-54.5 179.5q0 98 56.5 170.5t147.5 112.5t194 40q104 0 208.5 -39t163.5 -114q27 -33 27 -74q0 -47 -39 -78q-29 -23 -66 -23 q-45 0 -73 29q-37 45 -95.5 71.5t-132.5 26.5q-155 0 -155 -111q0 -46 28.5 -74t72.5 -43t124 -38q111 -31 184.5 -63.5t124.5 -100t51 -178.5q0 -100 -59 -175t-152.5 -113.5t-191.5 -38.5q-135 0 -252 45t-190 145q-19 24 -19 61z" />
<glyph unicode="t" horiz-adv-x="837" d="M31 965q0 47 32.5 78.5t81.5 31.5h95v131q0 53 35.5 89t89.5 36q51 0 85.5 -35.5t34.5 -89.5v-131h146q49 0 81.5 -32.5t32.5 -81.5q0 -47 -32.5 -79t-81.5 -32h-146v-555q0 -43 22.5 -62.5t61.5 -19.5q16 0 45 8q25 10 48 10q28 0 51.5 -27.5t23.5 -72.5 q0 -55 -60.5 -93t-135.5 -38q-127 0 -214 54.5t-87 230.5v565h-95q-49 0 -81.5 32.5t-32.5 82.5z" />
<glyph unicode="u" horiz-adv-x="1202" d="M133 451v520q0 53 35 89t88 36t88 -36t35 -89v-520q0 -125 55 -185.5t166 -60.5q113 0 168 60.5t55 185.5v520q0 53 35 89t88 36t88 -36t35 -89v-520q0 -221 -122 -346t-347 -125t-346 124.5t-121 346.5z" />
<glyph unicode="v" horiz-adv-x="1150" d="M61 987q0 41 35 75t86 34q39 0 72 -20.5t49 -57.5l283 -647l280 645q16 40 45 60q26 19 58 18h6q49 0 82 -32t33 -79q0 -25 -17 -61l-383 -844q-14 -35 -41.5 -55.5t-62.5 -22.5l-19 -2q-35 0 -64.5 21.5t-45.5 58.5l-381 844q-14 33 -15 65z" />
<glyph unicode="w" horiz-adv-x="1572" d="M61 969q0 51 34 89t89 38q41 0 71 -19.5t42 -58.5l221 -600l162 438q33 76 113 76q43 0 66.5 -18.5t39.5 -57.5l158 -428l219 590q12 39 43 58.5t76 19.5q49 0 82.5 -36t33.5 -91q0 -18 -8 -47l-313 -844q-12 -37 -44 -58.5t-69 -21.5l-16 2q-70 4 -105 78l-174 504 l-166 -504q-35 -74 -104 -78l-16 -2q-37 0 -69 21.5t-44 58.5l-313 844q-8 23 -9 47z" />
<glyph unicode="x" horiz-adv-x="997" d="M68.5 1060q37.5 36 87.5 36q59 0 100 -52l252 -313l233 309q39 55 99 56q49 0 82.5 -34t33.5 -77q0 -45 -28 -80l-283 -344l295 -366q27 -33 27 -74q0 -51 -39 -88t-86 -37q-59 0 -101 53l-245 305l-240 -305q-18 -25 -44 -38t-54 -13q-43 0 -82 32.5t-39 75.5 q0 41 31 78l284 348l-295 367q-26 32 -26 71q0 54 37.5 90z" />
<glyph unicode="y" horiz-adv-x="1202" d="M133 373v598q0 53 35 89t88 36t88 -36t35 -89v-525q0 -129 56.5 -185t164.5 -56q106 0 164.5 62.5t58.5 178.5v525q0 53 35 89t88 36t88 -36t35 -89v-871q0 -266 -143.5 -388t-382.5 -122q-70 0 -142.5 11.5t-117.5 29.5q-100 43 -101 119q0 14 6 33q12 45 42 68.5 t65 23.5q20 0 39 -6q14 -6 50 -20.5t76 -23.5t83 -9q145 0 213.5 62.5t68.5 213.5v21q-106 -133 -331 -133q-106 0 -188.5 50t-127.5 139t-45 204z" />
<glyph unicode="z" horiz-adv-x="991" d="M61 106q0 35 8.5 58.5t30.5 54.5l488 631h-398q-49 0 -81.5 32.5t-32.5 82.5q0 47 32.5 78.5t81.5 31.5h631q45 0 77 -31.5t32 -78.5q0 -31 -6 -52.5t-29 -50.5l-492 -637h428q50 0 82.5 -31.5t32.5 -80.5q0 -47 -32.5 -80t-82.5 -33h-659q-47 0 -79 34t-32 72z" />
<glyph unicode="{" horiz-adv-x="821" d="M20 508q0 41 28 67.5t67 26.5h12q82 4 130 59.5t48 165.5l-4 209q0 158 82 253t293 138q8 2 24 3q43 0 67 -27t24 -66q0 -27 -19.5 -49t-50.5 -33q-82 -29 -123 -62.5t-54.5 -77.5t-13.5 -114l5 -213q0 -113 -54.5 -179t-154.5 -101q100 -35 154.5 -102.5t54.5 -178.5 l-5 -213q0 -70 14.5 -112.5t54.5 -76.5t122 -65q33 -12 51.5 -35.5t18.5 -50.5q0 -35 -25 -61.5t-59 -26.5q-20 0 -31 2q-211 43 -293 138.5t-82 253.5l4 208q0 111 -49 166.5t-133 59.5h-8q-39 0 -67 26.5t-28 67.5z" />
<glyph unicode="|" horiz-adv-x="507" d="M131 -131v1647q0 53 36 88.5t89 35.5q51 0 86 -35.5t35 -88.5v-1647q0 -53 -36 -89t-89 -36q-51 0 -86 36t-35 89z" />
<glyph unicode="}" horiz-adv-x="821" d="M31 -317q0 27 19.5 49t49.5 32q82 29 123 63t54.5 78t13.5 113l-4 213q0 113 54 179.5t155 101.5q-100 35 -154.5 102.5t-54.5 178.5l4 213q0 70 -14.5 112.5t-54.5 76.5t-122 65q-33 12 -51 35.5t-18 50.5q0 35 24.5 61.5t59.5 26.5q20 0 30 -2q211 -43 293 -138.5 t82 -253.5l-4 -209q0 -111 49 -166t133 -59h9q38 0 66 -26.5t28 -67.5t-28 -67.5t-66 -26.5h-13q-82 -4 -130 -59.5t-48 -165.5l4 -209q0 -158 -82 -253.5t-293 -138.5q-20 -4 -34 -4q-35 0 -57.5 31t-22.5 64z" />
<glyph unicode="~" horiz-adv-x="1105" d="M102 600q0 94 60.5 137t191.5 43q41 0 99.5 -18.5t152.5 -54.5q137 -53 172 -54q23 0 35 12.5t6 30.5q-4 10 -4 29q0 33 21.5 52.5t54.5 19.5q47 0 80 -40t33 -102q0 -184 -234 -184q-41 0 -102.5 18.5t-161.5 55.5q-141 53 -178 53q-23 0 -35 -12.5t-6 -30.5 q4 -10 4 -29q0 -33 -21.5 -52t-54.5 -19q-47 0 -80 40t-33 105z" />
<glyph unicode="&#xa1;" horiz-adv-x="546" d="M137 950v35q0 59 32 91t91 32h27q59 0 91 -32t32 -91v-35q0 -59 -32 -91t-91 -32h-27q-59 0 -91 32t-32 91zM141 -176l58 754q6 78 73 77q70 1 76 -77l60 -754q4 -63 -34 -106.5t-100 -43.5q-61 0 -100 43t-33 107z" />
<glyph unicode="&#xa2;" horiz-adv-x="1054" d="M72 731q0 209 107.5 357.5t287.5 195.5v66q0 53 36 89t89 36q51 0 86 -36t35 -89v-56q131 -14 207.5 -65t76.5 -127q0 -47 -28.5 -82t-81.5 -35q-37 0 -62.5 15.5t-54.5 48.5q-31 35 -78 45v-727q55 12 88 47q31 31 54.5 45t64.5 14q51 0 81 -36t30 -87q0 -61 -85 -111.5 t-212 -66.5v-47q0 -53 -36 -89t-89 -36q-51 0 -86 36t-35 89v53q-182 45 -288.5 195.5t-106.5 357.5zM317 731q0 -119 46.5 -208t123.5 -132v682q-78 -39 -124 -129t-46 -213z" />
<glyph unicode="&#xa3;" horiz-adv-x="1277" d="M23 102q0 45 28.5 80t79.5 58q55 25 156 34q33 70 32 170q0 96 -34 207h-117q-47 0 -79 32t-32 79q0 45 32 73.5t79 28.5h45q-27 94 -27 148q0 129 56.5 229t163 156.5t251.5 56.5q80 0 155 -19.5t134 -52.5q55 -31 86 -68.5t31 -76.5q0 -51 -37 -88t-86 -37 q-27 0 -51.5 10.5t-38.5 24.5q-41 37 -86 55.5t-105 18.5q-102 0 -160.5 -64.5t-58.5 -150.5q0 -47 33 -142h285q47 0 78.5 -31.5t31.5 -78.5q0 -45 -31.5 -74t-78.5 -29h-211q27 -84 26 -143q0 -115 -67 -236q47 -8 99 -24.5t69 -20.5q78 -25 126 -37t95 -12q57 0 158 47 q49 25 84 25q47 0 73.5 -32t26.5 -79q0 -53 -39 -91t-123 -66q-76 -27 -182 -23q-45 2 -123 18.5t-154 34.5q-184 47 -235 47q-94 0 -154 -18q-16 -6 -27.5 -11t-19.5 -10q-37 -20 -63 -20q-39 0 -66.5 28.5t-27.5 73.5z" />
<glyph unicode="&#xa5;" horiz-adv-x="1220" d="M35 1315q0 51 47 88t96 37q61 0 101 -58l352 -544l334 540q18 29 45.5 45.5t56.5 16.5q49 0 86 -37t37 -90q0 -41 -23 -76l-333 -494h100q53 0 89 -30.5t36 -75.5q0 -47 -36 -78t-89 -31h-180v-79h184q53 0 89 -31t36 -76q0 -47 -36 -78t-89 -31h-184v-108q0 -53 -38 -89 t-95 -36t-95.5 36t-38.5 89v108h-151q-53 0 -89 31t-36 78q0 45 36 76t89 31h151v79h-155q-53 0 -89 31t-36 78q0 45 36 75.5t89 30.5h90l-350 476q-37 49 -37 96z" />
<glyph unicode="&#xa7;" horiz-adv-x="1144" d="M61 -4q0 49 34 84t85 35q57 0 101 -49q51 -61 114.5 -93t182.5 -32q80 0 133 26.5t53 79.5q0 61 -86 97t-272 79q-324 72 -324 342q0 70 36 155t134 134q-72 74 -72 193q0 139 72 235t180.5 141t212.5 39q240 -18 371 -194q4 -6 9 -26.5t5 -39.5q0 -49 -33.5 -83 t-95.5 -29q-14 0 -29 14q-53 57 -120.5 88t-139.5 31q-82 0 -132 -37t-50 -96q0 -117 272 -172q188 -37 284.5 -120t96.5 -206q1 -197 -157 -277q45 -43 66.5 -94t21.5 -121q0 -66 -37 -155.5t-134.5 -160.5t-264.5 -71q-131 0 -267.5 43t-197.5 113q-51 55 -52 127z M354 592q0 -76 121 -117l221 -55q57 -4 97.5 27.5t40.5 87.5q0 33 -19.5 57t-54.5 37l-254 65q-18 8 -45 8q-45 0 -76 -28.5t-31 -81.5z" />
<glyph unicode="&#xa8;" horiz-adv-x="864" d="M102 1331v37q0 55 30 78.5t91 23.5q74 0 102.5 -22.5t28.5 -79.5v-37q0 -59 -29.5 -80.5t-101.5 -21.5q-63 0 -92 23.5t-29 78.5zM510 1331v37q0 57 30.5 79.5t94.5 22.5q68 0 97.5 -23.5t29.5 -78.5v-37q0 -59 -30 -80.5t-101 -21.5q-64 0 -92.5 23.5t-28.5 78.5z" />
<glyph unicode="&#xa9;" horiz-adv-x="1597" d="M61 717q0 201 99.5 369.5t269.5 268t369 99.5t368.5 -99.5t269 -268t99.5 -369.5q0 -199 -99.5 -369t-269.5 -269t-368 -99q-199 0 -369 99t-269.5 269t-99.5 369zM213 717q0 -160 79 -294t213 -213t294 -79q159 0 293.5 79t213 213t78.5 294t-78.5 294t-213 213 t-293.5 79q-158 0 -293 -79t-214 -213t-79 -294zM381 717q0 117 61.5 218t166 160.5t225.5 59.5q113 0 204 -49q23 -10 35 -31.5t12 -48.5q0 -35 -18 -59q-27 -33 -70 -33q-23 0 -45 12q-55 25 -118 25q-72 0 -134.5 -35t-98.5 -93.5t-36 -125.5q0 -78 38 -135.5t99.5 -88 t131.5 -30.5q61 0 118 24q25 10 43 11q45 0 72 -33q20 -27 20 -62q0 -25 -12 -46t-35 -31q-94 -47 -206 -47q-115 0 -219.5 53t-169 152.5t-64.5 232.5z" />
<glyph unicode="&#xaa;" horiz-adv-x="724" d="M20 1157q0 141 79 234.5t214 93.5q121 0 166 -101v17q0 33 29 57.5t74 24.5t73.5 -24.5t28.5 -57.5v-498q0 -35 -30.5 -58.5t-71.5 -23.5q-45 0 -74 23.5t-29 58.5v37q-29 -59 -79 -99t-115 -40q-127 0 -196 101.5t-69 254.5zM225 1157q0 -86 35 -141t102 -55 q52 0 88.5 47t36.5 129q0 88 -34.5 138t-98.5 50q-53 0 -91 -50t-38 -118z" />
<glyph unicode="&#xab;" horiz-adv-x="995" d="M31 541q0 31 18 55l248 336q29 41 78 41q39 0 72.5 -30t33.5 -73q0 -35 -26 -71l-189 -256l195 -264q23 -29 23 -68q0 -49 -36 -79t-75 -30q-23 0 -44.5 11.5t-35.5 31.5l-244 338q-18 29 -18 58zM481 541q0 31 18 55l248 336q29 41 78 41q39 0 72.5 -30t33.5 -73 q0 -35 -26 -71l-189 -256l195 -264q23 -29 23 -68q0 -49 -36 -79t-75 -30q-23 0 -44.5 11.5t-35.5 31.5l-244 338q-18 29 -18 58z" />
<glyph unicode="&#xac;" horiz-adv-x="1396" d="M102 711q0 53 30 86.5t75 33.5h983q47 0 75.5 -28.5t28.5 -75.5v-377q0 -55 -37.5 -90t-97.5 -35q-55 0 -93 35t-38 90v236h-821q-47 0 -76 34.5t-29 90.5z" />
<glyph unicode="&#xad;" horiz-adv-x="811" d="M102 629q0 51 36 86t89 35h357q53 0 89 -36t36 -89q0 -51 -36 -85t-89 -34h-357q-53 0 -89 34.5t-36 88.5z" />
<glyph unicode="&#xae;" horiz-adv-x="1003" d="M41 993q0 125 61.5 230.5t168 168t231.5 62.5q123 0 229.5 -62.5t169 -169t62.5 -229.5q0 -125 -62.5 -231.5t-168 -168t-230.5 -61.5q-127 0 -232.5 61.5t-167 167t-61.5 232.5zM160 993q0 -92 46 -171t125 -125t171 -46t171 46t125 125t46 171t-46 171t-125 125 t-171 46t-171 -46t-125 -125t-46 -171zM317 801v389q0 16 12.5 29.5t30.5 13.5h175q57 0 100 -44t43 -108q0 -31 -22.5 -62.5t-51.5 -49.5q47 -39 51 -84q2 -29 6.5 -44.5t14.5 -23.5q16 -12 16 -35q0 -18 -12 -28q-16 -14 -35 -15q-16 0 -37 13q-51 33 -51 120 q0 31 -15.5 46.5t-56.5 15.5h-63v-133q0 -27 -14.5 -42.5t-36.5 -15.5q-25 0 -39.5 15.5t-14.5 42.5zM422 1022h90q29 0 48.5 16.5t19.5 40.5q0 25 -19.5 39.5t-48.5 14.5h-90v-111z" />
<glyph unicode="&#xaf;" horiz-adv-x="905" d="M102 1321q0 43 27 66.5t76 23.5h495q49 0 76 -23.5t27 -66.5q0 -92 -103 -92h-495q-49 0 -76 23.5t-27 68.5z" />
<glyph unicode="&#xb0;" horiz-adv-x="804" d="M61 1120q0 92 44.5 168t122 121t173.5 45q98 0 176 -45t122 -121t44 -168q0 -88 -44 -164.5t-121.5 -122t-176.5 -45.5q-96 0 -173.5 45.5t-122 122t-44.5 164.5zM246 1120q0 -68 44 -118t111 -50q68 0 113 50.5t45 117.5q0 70 -44 120t-114 50q-68 0 -111.5 -49 t-43.5 -121z" />
<glyph unicode="&#xb1;" horiz-adv-x="1183" d="M82 113q0 49 32.5 81.5t82.5 32.5h790q49 0 82 -32.5t33 -81.5t-33 -82t-82 -33h-790q-49 0 -82 32.5t-33 82.5zM82 715q0 49 32.5 79.5t82.5 30.5h280v197q0 57 38 94t97 37q57 0 94 -37t37 -94v-197h287q49 0 82 -31.5t33 -80.5t-33 -81t-82 -32h-287v-151 q0 -57 -37.5 -94.5t-95.5 -37.5q-57 0 -95 37t-38 95v151h-280q-49 0 -82 33t-33 82z" />
<glyph unicode="&#xb4;" horiz-adv-x="534" d="M109 1282q0 18 12 39l119 209q20 37 48.5 59.5t63.5 22.5q55 0 83 -29t26 -74q-4 -47 -39 -88l-156 -172q-33 -35 -92 -35q-20 0 -44 18.5t-21 49.5z" />
<glyph unicode="&#xb5;" horiz-adv-x="1241" d="M164 424v506q0 53 34.5 89t88.5 36q53 0 88 -36t35 -89v-443q0 -131 44 -206.5t154 -75.5q115 0 179.5 80t64.5 202v443q0 53 35 89t88 36t88 -36t35 -89v-805q0 -53 -35 -89t-88 -36t-88 36t-35 89v37q-29 -59 -103.5 -120.5t-185.5 -61.5q-35 0 -81 15t-72 46v-246 q0 -59 -31 -91t-90 -32t-91 32t-32 91z" />
<glyph unicode="&#xb6;" horiz-adv-x="1294" d="M72 995q0 227 129 333t397 106h449q36 0 59.5 -24t23.5 -60v-1256q0 -47 -28.5 -70.5t-61.5 -23.5q-35 0 -64.5 23.5t-29.5 70.5v1186h-129v-1135q0 -141 -77.5 -207.5t-198.5 -66.5q-100 0 -156 31q-25 12 -39 35.5t-14 50.5q0 16 10 41q25 45 74 45q16 0 22 -2 q66 -16 92 -17q102 0 103 131v398h-123q-223 0 -330.5 100t-107.5 311z" />
<glyph unicode="&#xb7;" horiz-adv-x="454" d="M90 610v35q0 59 32 91t91 32h27q59 0 90.5 -31.5t31.5 -91.5v-35q0 -59 -31.5 -91t-90.5 -32h-27q-59 0 -91 32t-32 91z" />
<glyph unicode="&#xb8;" horiz-adv-x="534" d="M102 -215q0 31 25 61l160 215h145l-113 -305q-25 -66 -83 -65q-39 0 -86.5 26.5t-47.5 67.5z" />
<glyph unicode="&#xba;" horiz-adv-x="716" d="M31 1124q0 92 43 168t116.5 119t165.5 43t168 -43t119 -118.5t43 -168.5q0 -90 -43 -163.5t-118.5 -115.5t-168.5 -42q-92 0 -166.5 42t-116.5 115.5t-42 163.5zM225 1124q0 -66 35 -106.5t96 -40.5t98.5 41t37.5 106q0 70 -37 113t-99 43q-59 0 -95 -43t-36 -113z" />
<glyph unicode="&#xbb;" horiz-adv-x="1017" d="M62 864q0 49 36 79t75 30q23 0 44 -11.5t35 -31.5l244 -338q19 -26 19 -57t-19 -56l-248 -336q-29 -41 -78 -41q-39 0 -72.5 30t-33.5 73q0 35 27 71l188 256l-195 265q-23 29 -22 67zM535 864q0 49 36 79t75 30q23 0 44 -11.5t35 -31.5l244 -338q19 -26 19 -57t-19 -56 l-248 -336q-29 -41 -78 -41q-39 0 -72.5 30t-33.5 73q0 35 27 71l188 256l-195 265q-23 29 -22 67z" />
<glyph unicode="&#xbf;" horiz-adv-x="1079" d="M59 43q0 197 113 311.5t299 143.5q10 4 10 10v76q0 53 35 89t88 36t88 -36t35 -89v-156q0 -53 -35 -89t-88 -36q-135 0 -217 -63.5t-82 -196.5q0 -102 74 -170t184 -68q113 0 199 76q49 45 102 45q39 0 70 -24q53 -41 53 -97q0 -47 -39 -86q-74 -76 -173 -117.5 t-212 -41.5q-139 0 -253.5 63.5t-182.5 175t-68 244.5zM465 918v34q0 59 31.5 91t91.5 32h26q60 0 91.5 -31.5t31.5 -91.5v-34q0 -59 -31.5 -91t-91.5 -32h-26q-59 0 -91 31.5t-32 91.5z" />
<glyph unicode="&#xc0;" horiz-adv-x="1308" d="M20 96q0 18 7 39l510 1225q16 41 48.5 63.5t73.5 18.5q37 0 69 -21.5t46 -60.5l504 -1200q10 -26 10 -49q0 -53 -34.5 -87t-79.5 -34q-37 0 -67 22.5t-46 61.5l-107 248h-610l-106 -250q-14 -39 -44 -60.5t-65 -21.5q-53 0 -81 28.5t-28 77.5zM327 1749q0 43 35 71.5 t74 28.5q47 0 100 -45l176 -155q29 -27 29 -56q0 -33 -23.5 -53t-62.5 -20q-22 0 -47 12l-205 108q-37 20 -56.5 49t-19.5 60zM444 557h410l-207 479z" />
<glyph unicode="&#xc1;" horiz-adv-x="1308" d="M20 96q0 18 7 39l510 1225q16 41 48.5 63.5t73.5 18.5q37 0 69 -21.5t46 -60.5l504 -1200q10 -26 10 -49q0 -53 -34.5 -87t-79.5 -34q-37 0 -67 22.5t-46 61.5l-107 248h-610l-106 -250q-14 -39 -44 -60.5t-65 -21.5q-53 0 -81 28.5t-28 77.5zM444 557h410l-207 479z M575 1585q0 29 29 55l176 156q53 45 100 45q39 0 74 -28.5t35 -71.5q0 -31 -19.5 -60.5t-56.5 -48.5l-205 -108q-20 -12 -47 -13q-39 0 -62.5 20.5t-23.5 53.5z" />
<glyph unicode="&#xc2;" horiz-adv-x="1308" d="M20 96q0 18 7 39l510 1225q16 41 48.5 63.5t73.5 18.5q37 0 69 -21.5t46 -60.5l504 -1200q10 -26 10 -49q0 -53 -34.5 -87t-79.5 -34q-37 0 -67 22.5t-46 61.5l-107 248h-610l-106 -250q-14 -39 -44 -60.5t-65 -21.5q-53 0 -81 28.5t-28 77.5zM357 1567q0 16 6 28.5 t24 32.5l129 148q27 31 55.5 45t69.5 14h33q39 0 68.5 -14.5t56.5 -44.5l129 -148q19 -20 25 -32.5t6 -28.5q0 -18 -18.5 -34.5t-45.5 -16.5q-18 0 -40.5 10t-63.5 35l-133 77l-133 -77q-33 -18 -59.5 -31.5t-45.5 -13.5q-27 0 -45 16t-18 35zM444 557h410l-207 479z" />
<glyph unicode="&#xc3;" horiz-adv-x="1308" d="M20 96q0 18 7 39l510 1225q16 41 48.5 63.5t73.5 18.5q37 0 69 -21.5t46 -60.5l504 -1200q10 -26 10 -49q0 -53 -34.5 -87t-79.5 -34q-37 0 -67 22.5t-46 61.5l-107 248h-610l-106 -250q-14 -39 -44 -60.5t-65 -21.5q-53 0 -81 28.5t-28 77.5zM270 1653q0 70 61.5 125 t165.5 55q53 0 100.5 -20.5t110.5 -57.5q43 -25 68.5 -37t46.5 -12q23 0 35 12.5t6 30.5q-4 10 -4 29q0 33 21.5 52t53.5 19q47 0 80 -40t33 -101q0 -39 -22.5 -82t-66.5 -72.5t-105 -29.5q-59 0 -110.5 20.5t-129.5 59.5q-45 25 -71.5 36t-47.5 11q-23 0 -35 -12.5 t-6 -30.5q4 -10 4 -29q0 -33 -21.5 -52.5t-54.5 -19.5q-47 0 -79.5 40t-32.5 106zM444 557h410l-207 479z" />
<glyph unicode="&#xc4;" horiz-adv-x="1308" d="M20 96q0 18 7 39l510 1225q16 41 48.5 63.5t73.5 18.5q37 0 69 -21.5t46 -60.5l504 -1200q10 -26 10 -49q0 -53 -34.5 -87t-79.5 -34q-37 0 -67 22.5t-46 61.5l-107 248h-610l-106 -250q-14 -39 -44 -60.5t-65 -21.5q-53 0 -81 28.5t-28 77.5zM330 1659v37q0 57 31 79.5 t94 22.5q68 0 97.5 -23.5t29.5 -78.5v-37q0 -57 -29.5 -80t-99.5 -23q-66 0 -94.5 24t-28.5 79zM444 557h410l-207 479zM738 1659v37q0 57 29.5 79.5t93.5 22.5q70 0 99.5 -22.5t29.5 -79.5v-37q0 -57 -30 -80t-99 -23q-66 0 -94.5 24t-28.5 79z" />
<glyph unicode="&#xc5;" horiz-adv-x="1316" d="M20 96q0 18 7 39l501 1206q-47 31 -74.5 79t-27.5 104q0 94 69.5 160.5t163.5 66.5t164 -66.5t70 -160.5q0 -57 -29.5 -105.5t-79.5 -81.5l494 -1177q10 -26 10 -49q0 -53 -34.5 -87t-79.5 -34q-37 0 -67 22.5t-46 61.5l-107 248h-610l-106 -250q-14 -39 -44 -60.5 t-65 -21.5q-53 0 -81 28.5t-28 77.5zM444 557h410l-207 479zM569 1524q0 -35 26 -57.5t64 -22.5q39 0 65 22.5t26 57.5q0 41 -27 62.5t-64 21.5q-38 0 -64 -22.5t-26 -61.5z" />
<glyph unicode="&#xc6;" horiz-adv-x="1810" d="M8 106q0 37 27 76l835 1198q37 53 115 54h619q53 0 89 -34t36 -87q0 -51 -35 -83t-90 -32h-514v-358h421q53 0 89 -34t36 -87q0 -51 -34.5 -83t-90.5 -32h-421v-368h514q53 0 89 -36t36 -83q0 -51 -36 -84t-89 -33h-646q-53 0 -88.5 36t-35.5 89v168h-451l-172 -254 q-37 -49 -88 -49q-45 0 -80 32.5t-35 83.5zM539 524h295v439z" />
<glyph unicode="&#xc7;" horiz-adv-x="1284" d="M82 717q0 209 95 374.5t263 259t379 93.5q182 0 338 -80q63 -33 64 -104q0 -43 -31 -84q-33 -43 -84 -43q-35 0 -70 18q-100 47 -217 47q-143 0 -249.5 -60.5t-164 -170t-57.5 -250.5q0 -242 130 -367t341 -125q125 0 217 47q37 16 66 17q53 0 90 -45q31 -39 31 -84 q0 -33 -16.5 -59.5t-47.5 -41.5q-150 -74 -319 -79l-82 -224q-25 -66 -84 -65q-39 0 -86 26.5t-47 67.5q0 31 24 61l109 146q-168 29 -302 120t-212 245.5t-78 359.5z" />
<glyph unicode="&#xc8;" horiz-adv-x="1171" d="M154 125v1184q0 53 35.5 89t89.5 36h686q53 0 89 -34t36 -87q0 -51 -35 -83t-90 -32h-555v-348h462q53 0 89 -34t36 -87q0 -51 -34.5 -83t-90.5 -32h-462v-378h555q53 0 89 -36t36 -83q0 -51 -36 -84t-89 -33h-686q-53 0 -89 36t-36 89zM294 1749q0 43 35 71.5t74 28.5 q47 0 100 -45l176 -155q29 -27 29 -56q0 -33 -23.5 -53t-62.5 -20q-22 0 -47 12l-205 108q-37 20 -56.5 49t-19.5 60z" />
<glyph unicode="&#xc9;" horiz-adv-x="1171" d="M154 125v1184q0 53 35.5 89t89.5 36h686q53 0 89 -34t36 -87q0 -51 -35 -83t-90 -32h-555v-348h462q53 0 89 -34t36 -87q0 -51 -34.5 -83t-90.5 -32h-462v-378h555q53 0 89 -36t36 -83q0 -51 -36 -84t-89 -33h-686q-53 0 -89 36t-36 89zM542 1585q0 29 29 55l176 156 q53 45 100 45q39 0 74 -28.5t35 -71.5q0 -31 -19.5 -60.5t-56.5 -48.5l-205 -108q-20 -12 -47 -13q-39 0 -62.5 20.5t-23.5 53.5z" />
<glyph unicode="&#xca;" horiz-adv-x="1171" d="M154 125v1184q0 53 35.5 89t89.5 36h686q53 0 89 -34t36 -87q0 -51 -35 -83t-90 -32h-555v-348h462q53 0 89 -34t36 -87q0 -51 -34.5 -83t-90.5 -32h-462v-378h555q53 0 89 -36t36 -83q0 -51 -36 -84t-89 -33h-686q-53 0 -89 36t-36 89zM324 1567q0 16 6 28.5t24 32.5 l129 148q27 31 55.5 45t69.5 14h33q39 0 68.5 -14.5t56.5 -44.5l129 -148q19 -20 25 -32.5t6 -28.5q0 -18 -18.5 -34.5t-45.5 -16.5q-18 0 -40.5 10t-63.5 35l-133 77l-133 -77q-33 -18 -59.5 -31.5t-45.5 -13.5q-27 0 -45 16t-18 35z" />
<glyph unicode="&#xcb;" horiz-adv-x="1171" d="M154 125v1184q0 53 35.5 89t89.5 36h686q53 0 89 -34t36 -87q0 -51 -35 -83t-90 -32h-555v-348h462q53 0 89 -34t36 -87q0 -51 -34.5 -83t-90.5 -32h-462v-378h555q53 0 89 -36t36 -83q0 -51 -36 -84t-89 -33h-686q-53 0 -89 36t-36 89zM297 1659v37q0 57 31 79.5 t94 22.5q68 0 97.5 -23.5t29.5 -78.5v-37q0 -57 -29.5 -80t-99.5 -23q-66 0 -94.5 24t-28.5 79zM705 1659v37q0 57 29.5 79.5t93.5 22.5q70 0 99.5 -22.5t29.5 -79.5v-37q0 -57 -30 -80t-99 -23q-66 0 -94.5 24t-28.5 79z" />
<glyph unicode="&#xcc;" horiz-adv-x="563" d="M-45 1749q0 43 35 71.5t74 28.5q47 0 100 -45l176 -155q29 -27 29 -56q0 -33 -23.5 -53t-62.5 -20q-22 0 -47 12l-205 108q-37 20 -56.5 49t-19.5 60zM154 125v1184q0 53 36.5 89t94.5 36q51 0 88 -36t37 -89v-1184q0 -53 -39 -89t-90 -36q-55 0 -91 36t-36 89z" />
<glyph unicode="&#xcd;" horiz-adv-x="563" d="M154 125v1184q0 53 36.5 89t94.5 36q51 0 88 -36t37 -89v-1184q0 -53 -39 -89t-90 -36q-55 0 -91 36t-36 89zM202 1585q0 29 29 55l176 156q53 45 100 45q39 0 74 -28.5t35 -71.5q0 -31 -19.5 -60.5t-56.5 -48.5l-205 -108q-20 -12 -47 -13q-39 0 -62.5 20.5t-23.5 53.5z " />
<glyph unicode="&#xce;" horiz-adv-x="563" d="M-16 1567q0 16 6 28.5t24 32.5l129 148q27 31 55.5 45t69.5 14h33q39 0 68.5 -14.5t56.5 -44.5l129 -148q19 -20 25 -32.5t6 -28.5q0 -18 -18.5 -34.5t-45.5 -16.5q-18 0 -40.5 10t-63.5 35l-133 77l-133 -77q-33 -18 -59.5 -31.5t-45.5 -13.5q-27 0 -45 16t-18 35z M154 125v1184q0 53 36.5 89t94.5 36q51 0 88 -36t37 -89v-1184q0 -53 -39 -89t-90 -36q-55 0 -91 36t-36 89z" />
<glyph unicode="&#xcf;" horiz-adv-x="563" d="M-43 1659v37q0 57 31 79.5t94 22.5q68 0 97.5 -23.5t29.5 -78.5v-37q0 -57 -29.5 -80t-99.5 -23q-66 0 -94.5 24t-28.5 79zM154 125v1184q0 53 36.5 89t94.5 36q51 0 88 -36t37 -89v-1184q0 -53 -39 -89t-90 -36q-55 0 -91 36t-36 89zM365 1659v37q0 57 29.5 79.5 t93.5 22.5q70 0 99.5 -22.5t29.5 -79.5v-37q0 -57 -30 -80t-99 -23q-66 0 -94.5 24t-28.5 79z" />
<glyph unicode="&#xd0;" horiz-adv-x="1464" d="M-8 723q0 47 35.5 79t89.5 32h37v475q0 53 35.5 89t89.5 36h489q193 0 331 -95.5t210.5 -258t72.5 -363.5t-72.5 -364t-210.5 -258t-331 -95h-489q-53 0 -89 36t-36 89v483h-37q-53 0 -89 32t-36 83zM410 236h338q184 0 276 136t92 345t-93 345t-275 136h-338v-364h63 q53 0 89 -32t36 -79q0 -51 -36 -83t-89 -32h-63v-372z" />
<glyph unicode="&#xd1;" horiz-adv-x="1505" d="M154 115v1194q0 53 35.5 89t89.5 36q31 0 60.5 -12.5t43.5 -32.5l745 -951v881q0 49 32 82t81 33t80 -33t31 -82v-1194q0 -53 -36 -89t-89 -36q-29 0 -56.5 9t-40.5 26l-751 954v-874q0 -49 -32 -82t-83 -33q-49 0 -79.5 33t-30.5 82zM365 1653q0 70 61.5 125t165.5 55 q53 0 100.5 -20.5t110.5 -57.5q43 -25 68.5 -37t46.5 -12q23 0 35 12.5t6 30.5q-4 10 -4 29q0 33 21.5 52t53.5 19q47 0 80 -40t33 -101q0 -39 -22.5 -82t-66.5 -72.5t-105 -29.5q-59 0 -110.5 20.5t-129.5 59.5q-45 25 -71.5 36t-47.5 11q-23 0 -35 -12.5t-6 -30.5 q4 -10 4 -29q0 -33 -21.5 -52.5t-54.5 -19.5q-47 0 -79.5 40t-32.5 106z" />
<glyph unicode="&#xd2;" horiz-adv-x="1554" d="M82 717q0 203 89 371.5t248 267t357 98.5q199 0 357.5 -98.5t249 -267t90.5 -371.5t-90.5 -372t-249 -267t-357.5 -98t-357.5 98t-247.5 267t-89 372zM348 717q0 -137 54.5 -250t151.5 -177.5t222 -64.5q123 0 221.5 65.5t153.5 177.5t55 249t-55 248.5t-153.5 177 t-221.5 65.5q-125 0 -222 -64.5t-151.5 -177t-54.5 -249.5zM446 1749q0 43 35 71.5t74 28.5q47 0 100 -45l176 -155q29 -27 29 -56q0 -33 -23.5 -53t-62.5 -20q-22 0 -47 12l-205 108q-37 20 -56.5 49t-19.5 60z" />
<glyph unicode="&#xd3;" horiz-adv-x="1554" d="M82 717q0 203 89 371.5t248 267t357 98.5q199 0 357.5 -98.5t249 -267t90.5 -371.5t-90.5 -372t-249 -267t-357.5 -98t-357.5 98t-247.5 267t-89 372zM348 717q0 -137 54.5 -250t151.5 -177.5t222 -64.5q123 0 221.5 65.5t153.5 177.5t55 249t-55 248.5t-153.5 177 t-221.5 65.5q-125 0 -222 -64.5t-151.5 -177t-54.5 -249.5zM694 1585q0 29 29 55l176 156q53 45 100 45q39 0 74 -28.5t35 -71.5q0 -31 -19.5 -60.5t-56.5 -48.5l-205 -108q-20 -12 -47 -13q-39 0 -62.5 20.5t-23.5 53.5z" />
<glyph unicode="&#xd4;" horiz-adv-x="1554" d="M82 717q0 203 89 371.5t248 267t357 98.5q199 0 357.5 -98.5t249 -267t90.5 -371.5t-90.5 -372t-249 -267t-357.5 -98t-357.5 98t-247.5 267t-89 372zM348 717q0 -137 54.5 -250t151.5 -177.5t222 -64.5q123 0 221.5 65.5t153.5 177.5t55 249t-55 248.5t-153.5 177 t-221.5 65.5q-125 0 -222 -64.5t-151.5 -177t-54.5 -249.5zM475 1567q0 16 6 28.5t24 32.5l129 148q27 31 55.5 45t69.5 14h33q39 0 68.5 -14.5t56.5 -44.5l129 -148q19 -20 25 -32.5t6 -28.5q0 -18 -18.5 -34.5t-45.5 -16.5q-18 0 -40.5 10t-63.5 35l-133 77l-133 -77 q-33 -18 -59.5 -31.5t-45.5 -13.5q-27 0 -45 16t-18 35z" />
<glyph unicode="&#xd5;" horiz-adv-x="1554" d="M82 717q0 203 89 371.5t248 267t357 98.5q199 0 357.5 -98.5t249 -267t90.5 -371.5t-90.5 -372t-249 -267t-357.5 -98t-357.5 98t-247.5 267t-89 372zM348 717q0 -137 54.5 -250t151.5 -177.5t222 -64.5q123 0 221.5 65.5t153.5 177.5t55 249t-55 248.5t-153.5 177 t-221.5 65.5q-125 0 -222 -64.5t-151.5 -177t-54.5 -249.5zM389 1653q0 70 61.5 125t165.5 55q53 0 100.5 -20.5t110.5 -57.5q43 -25 68.5 -37t46.5 -12q23 0 35 12.5t6 30.5q-4 10 -4 29q0 33 21.5 52t53.5 19q47 0 80 -40t33 -101q0 -39 -22.5 -82t-66.5 -72.5t-105 -29.5 q-59 0 -110.5 20.5t-129.5 59.5q-45 25 -71.5 36t-47.5 11q-23 0 -35 -12.5t-6 -30.5q4 -10 4 -29q0 -33 -21.5 -52.5t-54.5 -19.5q-47 0 -79.5 40t-32.5 106z" />
<glyph unicode="&#xd6;" horiz-adv-x="1554" d="M82 717q0 203 89 371.5t248 267t357 98.5q199 0 357.5 -98.5t249 -267t90.5 -371.5t-90.5 -372t-249 -267t-357.5 -98t-357.5 98t-247.5 267t-89 372zM348 717q0 -137 54.5 -250t151.5 -177.5t222 -64.5q123 0 221.5 65.5t153.5 177.5t55 249t-55 248.5t-153.5 177 t-221.5 65.5q-125 0 -222 -64.5t-151.5 -177t-54.5 -249.5zM448 1659v37q0 57 31 79.5t94 22.5q68 0 97.5 -23.5t29.5 -78.5v-37q0 -57 -29.5 -80t-99.5 -23q-66 0 -94.5 24t-28.5 79zM856 1659v37q0 57 29.5 79.5t93.5 22.5q70 0 99.5 -22.5t29.5 -79.5v-37q0 -57 -30 -80 t-99 -23q-66 0 -94.5 24t-28.5 79z" />
<glyph unicode="&#xd8;" horiz-adv-x="1513" d="M82 717q0 203 89 371.5t248 267t357 98.5q195 0 354 -96l111 137q33 39 80 39q41 0 72.5 -29.5t31.5 -70.5q0 -37 -24 -68l-113 -139q88 -101 136.5 -232t48.5 -278q0 -203 -90.5 -372t-249 -267t-357.5 -98q-111 0 -212 32.5t-185 91.5l-105 -127q-31 -41 -79 -40 q-39 0 -72 30.5t-33 71.5q0 37 25 67l116 144q-72 96 -110.5 216t-38.5 251zM348 717q0 -137 55 -254l566 696q-82 49 -193 49q-125 0 -222 -64.5t-151.5 -177t-54.5 -249.5zM537 301q109 -76 239 -76q123 0 221.5 65.5t153.5 177.5t55 249q0 172 -86 303z" />
<glyph unicode="&#xd9;" horiz-adv-x="1443" d="M154 569v742q0 53 36.5 89t94.5 36q49 0 86 -36t37 -89v-742q0 -98 43 -175t115.5 -117.5t156.5 -40.5q88 0 165 40.5t123 117.5t46 175v742q0 55 30.5 90t83.5 35q54 0 86.5 -35t32.5 -90v-742q0 -170 -71.5 -301t-200.5 -204.5t-295 -73.5t-296 73.5t-201.5 204.5 t-71.5 301zM391 1749q0 43 35 71.5t74 28.5q47 0 100 -45l176 -155q29 -27 29 -56q0 -33 -23.5 -53t-62.5 -20q-22 0 -47 12l-205 108q-37 20 -56.5 49t-19.5 60z" />
<glyph unicode="&#xda;" horiz-adv-x="1443" d="M154 569v742q0 53 36.5 89t94.5 36q49 0 86 -36t37 -89v-742q0 -98 43 -175t115.5 -117.5t156.5 -40.5q88 0 165 40.5t123 117.5t46 175v742q0 55 30.5 90t83.5 35q54 0 86.5 -35t32.5 -90v-742q0 -170 -71.5 -301t-200.5 -204.5t-295 -73.5t-296 73.5t-201.5 204.5 t-71.5 301zM639 1585q0 29 29 55l176 156q53 45 100 45q39 0 74 -28.5t35 -71.5q0 -31 -19.5 -60.5t-56.5 -48.5l-205 -108q-20 -12 -47 -13q-39 0 -62.5 20.5t-23.5 53.5z" />
<glyph unicode="&#xdb;" horiz-adv-x="1443" d="M154 569v742q0 53 36.5 89t94.5 36q49 0 86 -36t37 -89v-742q0 -98 43 -175t115.5 -117.5t156.5 -40.5q88 0 165 40.5t123 117.5t46 175v742q0 55 30.5 90t83.5 35q54 0 86.5 -35t32.5 -90v-742q0 -170 -71.5 -301t-200.5 -204.5t-295 -73.5t-296 73.5t-201.5 204.5 t-71.5 301zM420 1567q0 16 6 28.5t24 32.5l129 148q27 31 55.5 45t69.5 14h33q39 0 68.5 -14.5t56.5 -44.5l129 -148q19 -20 25 -32.5t6 -28.5q0 -18 -18.5 -34.5t-45.5 -16.5q-18 0 -40.5 10t-63.5 35l-133 77l-133 -77q-33 -18 -59.5 -31.5t-45.5 -13.5q-27 0 -45 16 t-18 35z" />
<glyph unicode="&#xdc;" horiz-adv-x="1443" d="M154 569v742q0 53 36.5 89t94.5 36q49 0 86 -36t37 -89v-742q0 -98 43 -175t115.5 -117.5t156.5 -40.5q88 0 165 40.5t123 117.5t46 175v742q0 55 30.5 90t83.5 35q54 0 86.5 -35t32.5 -90v-742q0 -170 -71.5 -301t-200.5 -204.5t-295 -73.5t-296 73.5t-201.5 204.5 t-71.5 301zM393 1659v37q0 57 31 79.5t94 22.5q68 0 97.5 -23.5t29.5 -78.5v-37q0 -57 -29.5 -80t-99.5 -23q-66 0 -94.5 24t-28.5 79zM801 1659v37q0 57 29.5 79.5t93.5 22.5q70 0 99.5 -22.5t29.5 -79.5v-37q0 -57 -30 -80t-99 -23q-66 0 -94.5 24t-28.5 79z" />
<glyph unicode="&#xdd;" horiz-adv-x="1220" d="M35 1315q0 53 42 89t89 36q57 0 100 -58l361 -497l338 493q43 61 102 62q49 0 86 -37t37 -90q0 -41 -23 -76l-428 -612v-500q0 -53 -34.5 -89t-83.5 -36q-51 0 -87 36t-36 89v528l-426 566q-37 49 -37 96zM526 1585q0 29 29 55l176 156q53 45 100 45q39 0 74 -28.5 t35 -71.5q0 -31 -19.5 -60.5t-56.5 -48.5l-205 -108q-20 -12 -47 -13q-39 0 -62.5 20.5t-23.5 53.5z" />
<glyph unicode="&#xde;" horiz-adv-x="1234" d="M154 125v1266q0 53 35.5 89t89.5 36q53 0 86.5 -36t33.5 -89v-142h346q105 0 199 -62.5t151.5 -168t57.5 -230.5q0 -123 -57.5 -229t-151.5 -168.5t-199 -62.5h-346v-203q0 -53 -35.5 -89t-89.5 -36q-53 0 -86.5 36t-33.5 89zM399 573h346q39 0 77 30t61.5 79t23.5 106 t-23.5 106.5t-61.5 79.5t-77 30h-346v-431z" />
<glyph unicode="&#xdf;" horiz-adv-x="1366" d="M61 897q0 51 36 84t89 33h54v14q0 223 131 352t356 129q135 0 235.5 -45t152.5 -124.5t52 -178.5q0 -96 -62.5 -166.5t-158.5 -117.5q148 -54 248 -164.5t100 -280.5q0 -131 -55 -234.5t-152.5 -160.5t-220.5 -57q-106 0 -178 31.5t-108 80.5q-18 25 -19 62q0 53 53 90 q29 18 60 18q43 0 82 -39q20 -20 53 -33.5t68 -13.5q90 0 131 62.5t41 160.5q0 133 -70 206t-193 104q-51 14 -73.5 39.5t-22.5 66.5q0 78 58 111q84 43 130 93t46 120q0 72 -56.5 108.5t-152.5 36.5q-104 0 -167 -65.5t-63 -182.5v-911q0 -53 -34.5 -89t-88.5 -36 q-53 0 -87.5 36t-34.5 89v653h-54q-53 0 -89 34t-36 85z" />
<glyph unicode="&#xe0;" d="M72 547q0 164 65.5 294t179 202.5t250.5 72.5q98 0 184.5 -36t145.5 -91v2q0 53 35 89t88 36t88 -34.5t35 -90.5v-866q0 -53 -35 -89t-88 -36t-87 35t-36 88q-51 -59 -138 -101t-184 -42q-141 0 -255.5 72.5t-181 201.5t-66.5 293zM297 1397q0 43 35 71.5t74 28.5 q47 0 100 -45l176 -156q29 -27 29 -55q0 -33 -23.5 -53.5t-62.5 -20.5q-22 1 -47 13l-205 108q-37 20 -56.5 49t-19.5 60zM307 547q0 -147 83 -244.5t216 -97.5t217 97t84 245q0 147 -84 245.5t-217 98.5q-131 0 -215 -98.5t-84 -245.5z" />
<glyph unicode="&#xe1;" d="M72 547q0 164 65.5 294t179 202.5t250.5 72.5q98 0 184.5 -36t145.5 -91v2q0 53 35 89t88 36t88 -34.5t35 -90.5v-866q0 -53 -35 -89t-88 -36t-87 35t-36 88q-51 -59 -138 -101t-184 -42q-141 0 -255.5 72.5t-181 201.5t-66.5 293zM307 547q0 -147 83 -244.5t216 -97.5 t217 97t84 245q0 147 -84 245.5t-217 98.5q-131 0 -215 -98.5t-84 -245.5zM563 1233q0 18 12 39l119 209q20 37 49 59.5t64 22.5q55 0 82.5 -28.5t25.5 -73.5q-4 -47 -39 -88l-155 -172q-33 -35 -92 -35q-21 0 -44.5 18.5t-21.5 48.5z" />
<glyph unicode="&#xe2;" d="M72 547q0 164 65.5 294t179 202.5t250.5 72.5q98 0 184.5 -36t145.5 -91v2q0 53 35 89t88 36t88 -34.5t35 -90.5v-866q0 -53 -35 -89t-88 -36t-87 35t-36 88q-51 -59 -138 -101t-184 -42q-141 0 -255.5 72.5t-181 201.5t-66.5 293zM307 547q0 -147 83 -244.5t216 -97.5 t217 97t84 245q0 147 -84 245.5t-217 98.5q-131 0 -215 -98.5t-84 -245.5zM344 1278q0 18 4 30.5t21 32.5l100 127q47 59 125 60h74q41 0 64.5 -12.5t45.5 -47.5l90 -127q17 -20 21 -32.5t4 -30.5q0 -20 -17.5 -35.5t-44.5 -15.5q-31 0 -46 8t-30.5 21.5t-23.5 19.5l-108 96 l-117 -96q-8 -6 -25.5 -21.5t-34 -21.5t-41.5 -6q-27 0 -44 15t-17 36z" />
<glyph unicode="&#xe3;" d="M72 547q0 164 65.5 294t179 202.5t250.5 72.5q98 0 184.5 -36t145.5 -91v2q0 53 35 89t88 36t88 -34.5t35 -90.5v-866q0 -53 -35 -89t-88 -36t-87 35t-36 88q-51 -59 -138 -101t-184 -42q-141 0 -255.5 72.5t-181 201.5t-66.5 293zM231 1348q0 72 65.5 126t186.5 54 q53 0 97 -21.5t101 -60.5q35 -27 58.5 -39t44.5 -12q23 0 35 12t6 31q-4 10 -4 28q0 33 21.5 52.5t54.5 19.5q47 0 79.5 -37t32.5 -98q0 -39 -24.5 -82t-76.5 -72.5t-132 -29.5q-41 0 -86 20.5t-107 56.5q-49 29 -76.5 42.5t-50.5 13.5t-35 -12.5t-6 -30.5q4 -10 4 -29 q0 -33 -21.5 -52.5t-53.5 -19.5q-48 0 -80.5 38t-32.5 102zM307 547q0 -147 83 -244.5t216 -97.5t217 97t84 245q0 147 -84 245.5t-217 98.5q-131 0 -215 -98.5t-84 -245.5z" />
<glyph unicode="&#xe4;" d="M72 547q0 164 65.5 294t179 202.5t250.5 72.5q98 0 184.5 -36t145.5 -91v2q0 53 35 89t88 36t88 -34.5t35 -90.5v-866q0 -53 -35 -89t-88 -36t-87 35t-36 88q-51 -59 -138 -101t-184 -42q-141 0 -255.5 72.5t-181 201.5t-66.5 293zM289 1331v37q0 55 30 78.5t91 23.5 q74 0 102.5 -22.5t28.5 -79.5v-37q0 -59 -29.5 -80.5t-101.5 -21.5q-64 0 -92.5 23.5t-28.5 78.5zM307 547q0 -147 83 -244.5t216 -97.5t217 97t84 245q0 147 -84 245.5t-217 98.5q-131 0 -215 -98.5t-84 -245.5zM697 1331v37q0 57 30.5 79.5t94.5 22.5q68 0 97.5 -23.5 t29.5 -78.5v-37q0 -59 -30 -80.5t-101 -21.5q-64 0 -92.5 23.5t-28.5 78.5z" />
<glyph unicode="&#xe5;" d="M72 547q0 164 65.5 294t179 202.5t250.5 72.5q98 0 184.5 -36t145.5 -91v2q0 53 35 89t88 36t88 -34.5t35 -90.5v-866q0 -53 -35 -89t-88 -36t-87 35t-36 88q-51 -59 -138 -101t-184 -42q-141 0 -255.5 72.5t-181 201.5t-66.5 293zM307 547q0 -147 83 -244.5t216 -97.5 t217 97t84 245q0 147 -84 245.5t-217 98.5q-131 0 -215 -98.5t-84 -245.5zM389 1391q0 94 69.5 160.5t163.5 66.5t164 -66.5t70 -160.5q0 -59 -33 -110.5t-86 -82.5t-115 -31q-61 0 -114.5 31t-86 82t-32.5 111zM532 1391q0 -35 25.5 -57.5t64.5 -22.5t64.5 22.5t25.5 57.5 q0 41 -26.5 62.5t-63.5 21.5q-39 0 -64.5 -22.5t-25.5 -61.5z" />
<glyph unicode="&#xe6;" horiz-adv-x="1875" d="M72 809q0 47 28 84q180 223 447 223q119 0 224.5 -33.5t164.5 -107.5q72 70 162 105.5t188 35.5q135 0 255 -73.5t191.5 -198.5t71.5 -271q-2 -49 -38.5 -79.5t-86.5 -30.5h-675q25 -121 112.5 -189.5t198.5 -68.5q84 0 131 15.5t74.5 32.5t38.5 23q37 18 69 19 q43 0 74 -31t31 -71q0 -55 -58 -101q-57 -47 -153.5 -79.5t-194.5 -32.5q-145 0 -261 52t-192 148q-63 -78 -170.5 -139t-236.5 -61q-98 0 -187.5 36.5t-145.5 112.5t-56 186q0 352 440 353h242v51q0 172 -219 172q-98 0 -155.5 -34t-117.5 -103q-39 -43 -92 -43 q-41 0 -72.5 27.5t-31.5 70.5zM324 319q0 -59 44 -88.5t107 -29.5q121 0 195.5 49t111.5 117q-12 45 -18 96h-270q-98 0 -134 -41t-36 -103zM1006 668h536v14q-8 86 -84 147.5t-172 61.5q-237 0 -280 -223z" />
<glyph unicode="&#xe7;" horiz-adv-x="1054" d="M72 547q0 166 68.5 295t191.5 201.5t278 72.5q174 0 280.5 -54t106.5 -144q0 -45 -26.5 -79t-69.5 -34q-33 0 -53.5 9t-40 24.5t-37.5 25.5q-20 10 -60 18.5t-65 8.5q-154 0 -241 -95.5t-87 -248.5q0 -147 88.5 -244.5t225.5 -97.5q100 0 149 24q12 6 34 21.5t40 24 t45 8.5q51 0 81 -33t30 -84q0 -68 -101.5 -121t-244.5 -63l-84 -226q-25 -66 -84 -65q-39 0 -86.5 26.5t-47.5 67.5q0 31 25 61l107 144q-195 35 -308.5 187.5t-113.5 369.5z" />
<glyph unicode="&#xe8;" horiz-adv-x="1187" d="M72 532q0 176 73.5 309.5t194.5 204t258 70.5q135 0 255 -73.5t191.5 -198.5t71.5 -271q-2 -49 -39 -79.5t-86 -30.5h-676q25 -121 113 -189.5t199 -68.5q84 0 131 15.5t74.5 32.5t37.5 23q37 18 70 19q43 0 73.5 -31t30.5 -71q0 -55 -57 -101q-57 -47 -153.5 -79.5 t-194.5 -32.5q-172 0 -300 71.5t-197.5 197.5t-69.5 283zM268 1397q0 43 35 71.5t74 28.5q47 0 100 -45l176 -156q29 -27 29 -55q0 -33 -23.5 -53.5t-62.5 -20.5q-22 1 -47 13l-205 108q-37 20 -56.5 49t-19.5 60zM317 668h537v14q-8 86 -84 147.5t-172 61.5 q-238 0 -281 -223z" />
<glyph unicode="&#xe9;" horiz-adv-x="1187" d="M72 532q0 176 73.5 309.5t194.5 204t258 70.5q135 0 255 -73.5t191.5 -198.5t71.5 -271q-2 -49 -39 -79.5t-86 -30.5h-676q25 -121 113 -189.5t199 -68.5q84 0 131 15.5t74.5 32.5t37.5 23q37 18 70 19q43 0 73.5 -31t30.5 -71q0 -55 -57 -101q-57 -47 -153.5 -79.5 t-194.5 -32.5q-172 0 -300 71.5t-197.5 197.5t-69.5 283zM317 668h537v14q-8 86 -84 147.5t-172 61.5q-238 0 -281 -223zM535 1233q0 18 12 39l119 209q20 37 49 59.5t64 22.5q55 0 82.5 -28.5t25.5 -73.5q-4 -47 -39 -88l-155 -172q-33 -35 -92 -35q-21 0 -44.5 18.5 t-21.5 48.5z" />
<glyph unicode="&#xea;" horiz-adv-x="1187" d="M72 532q0 176 73.5 309.5t194.5 204t258 70.5q135 0 255 -73.5t191.5 -198.5t71.5 -271q-2 -49 -39 -79.5t-86 -30.5h-676q25 -121 113 -189.5t199 -68.5q84 0 131 15.5t74.5 32.5t37.5 23q37 18 70 19q43 0 73.5 -31t30.5 -71q0 -55 -57 -101q-57 -47 -153.5 -79.5 t-194.5 -32.5q-172 0 -300 71.5t-197.5 197.5t-69.5 283zM315 1278q0 18 4 30.5t21 32.5l100 127q47 59 125 60h74q41 0 64.5 -12.5t45.5 -47.5l90 -127q17 -20 21 -32.5t4 -30.5q0 -20 -17.5 -35.5t-44.5 -15.5q-31 0 -46 8t-30.5 21.5t-23.5 19.5l-108 96l-117 -96 q-8 -6 -25.5 -21.5t-34 -21.5t-41.5 -6q-27 0 -44 15t-17 36zM317 668h537v14q-8 86 -84 147.5t-172 61.5q-238 0 -281 -223z" />
<glyph unicode="&#xeb;" horiz-adv-x="1187" d="M72 532q0 176 73.5 309.5t194.5 204t258 70.5q135 0 255 -73.5t191.5 -198.5t71.5 -271q-2 -49 -39 -79.5t-86 -30.5h-676q25 -121 113 -189.5t199 -68.5q84 0 131 15.5t74.5 32.5t37.5 23q37 18 70 19q43 0 73.5 -31t30.5 -71q0 -55 -57 -101q-57 -47 -153.5 -79.5 t-194.5 -32.5q-172 0 -300 71.5t-197.5 197.5t-69.5 283zM260 1331v37q0 55 30 78.5t91 23.5q74 0 102.5 -22.5t28.5 -79.5v-37q0 -59 -29.5 -80.5t-101.5 -21.5q-64 0 -92.5 23.5t-28.5 78.5zM317 668h537v14q-8 86 -84 147.5t-172 61.5q-238 0 -281 -223zM668 1331v37 q0 57 30.5 79.5t94.5 22.5q68 0 97.5 -23.5t29.5 -78.5v-37q0 -59 -30 -80.5t-101 -21.5q-64 0 -92.5 23.5t-28.5 78.5z" />
<glyph unicode="&#xec;" horiz-adv-x="483" d="M-80 1397q0 43 35 71.5t74 28.5q47 0 100 -45l176 -156q29 -27 29 -55q0 -33 -23.5 -53.5t-62.5 -20.5q-22 1 -47 13l-205 108q-37 20 -56.5 49t-19.5 60zM119 125v846q0 53 34.5 89t88.5 36q53 0 88 -36t35 -89v-846q0 -53 -35 -89t-88 -36t-88 36t-35 89z" />
<glyph unicode="&#xed;" horiz-adv-x="483" d="M119 125v846q0 53 34.5 89t88.5 36q53 0 88 -36t35 -89v-846q0 -53 -35 -89t-88 -36t-88 36t-35 89zM186 1233q0 18 12 39l119 209q20 37 49 59.5t64 22.5q55 0 82.5 -28.5t25.5 -73.5q-4 -47 -39 -88l-155 -172q-33 -35 -92 -35q-21 0 -44.5 18.5t-21.5 48.5z" />
<glyph unicode="&#xee;" horiz-adv-x="483" d="M-33 1278q0 18 4 30.5t21 32.5l100 127q47 59 125 60h74q41 0 64.5 -12.5t45.5 -47.5l90 -127q17 -20 21 -32.5t4 -30.5q0 -20 -17.5 -35.5t-44.5 -15.5q-31 0 -46 8t-30.5 21.5t-23.5 19.5l-108 96l-117 -96q-8 -6 -25.5 -21.5t-34 -21.5t-41.5 -6q-27 0 -44 15t-17 36z M119 125v846q0 53 34.5 89t88.5 36q53 0 88 -36t35 -89v-846q0 -53 -35 -89t-88 -36t-88 36t-35 89z" />
<glyph unicode="&#xef;" horiz-adv-x="483" d="M-88 1331v37q0 55 30 78.5t91 23.5q74 0 102.5 -22.5t28.5 -79.5v-37q0 -59 -29.5 -80.5t-101.5 -21.5q-64 0 -92.5 23.5t-28.5 78.5zM119 125v846q0 53 34.5 89t88.5 36q53 0 88 -36t35 -89v-846q0 -53 -35 -89t-88 -36t-88 36t-35 89zM320 1331v37q0 57 30.5 79.5 t94.5 22.5q68 0 97.5 -23.5t29.5 -78.5v-37q0 -59 -30 -80.5t-101 -21.5q-64 0 -92.5 23.5t-28.5 78.5z" />
<glyph unicode="&#xf0;" horiz-adv-x="1179" d="M72 537q0 152 70.5 279.5t183 202.5t231.5 75q131 0 227 -74q-29 76 -86 129l-338 -68q-25 -4 -38 -4q-39 0 -62.5 20.5t-23.5 63.5q0 63 83 80l140 29l-6 2q-49 12 -79 46t-30 79t27.5 82t79.5 37q31 0 63 -9q164 -49 283 -151l121 18q10 2 30 2q78 0 92 -61q2 -6 2 -21 q0 -66 -84 -80l-30 -4q90 -127 135 -289.5t45 -347.5q0 -182 -68.5 -317t-186.5 -205.5t-263 -70.5q-143 0 -262 73.5t-187.5 201.5t-68.5 282zM317 537q0 -88 36 -159t98.5 -112t138.5 -41t138.5 41t98 112t35.5 159t-35.5 158.5t-98 111.5t-138.5 41t-138.5 -41 t-98.5 -111.5t-36 -158.5z" />
<glyph unicode="&#xf1;" horiz-adv-x="1220" d="M133 125v846q0 53 35 89t88 36t88 -36t35 -89v-35q55 74 144 127t196 53q209 0 288.5 -124t79.5 -343v-524q0 -53 -34.5 -89t-87.5 -36t-88 36t-35 89v524q0 113 -47 177.5t-162 64.5q-119 0 -186.5 -68.5t-67.5 -173.5v-524q0 -53 -35 -89t-88 -36t-88 36t-35 89z M223 1348q0 72 65.5 126t186.5 54q53 0 97 -21.5t101 -60.5q35 -27 58.5 -39t44.5 -12q23 0 35 12t6 31q-4 10 -4 28q0 33 21.5 52.5t54.5 19.5q47 0 79.5 -37t32.5 -98q0 -39 -24.5 -82t-76.5 -72.5t-132 -29.5q-41 0 -86 20.5t-107 56.5q-49 29 -76.5 42.5t-50.5 13.5 t-35 -12.5t-6 -30.5q4 -10 4 -29q0 -33 -21.5 -52.5t-53.5 -19.5q-48 0 -80.5 38t-32.5 102z" />
<glyph unicode="&#xf2;" horiz-adv-x="1257" d="M72 547q0 164 73.5 294t200.5 202.5t283 72.5q154 0 281.5 -72.5t201.5 -202.5t74 -294t-74 -294t-202 -201.5t-281 -71.5q-156 0 -283 71.5t-200.5 201.5t-73.5 294zM307 1397q0 43 35 71.5t74 28.5q47 0 100 -45l176 -156q29 -27 29 -55q0 -33 -23.5 -53.5t-62.5 -20.5 q-22 1 -47 13l-205 108q-37 20 -56.5 49t-19.5 60zM317 547q0 -100 42 -178t113 -121t157 -43t156.5 43t112.5 120.5t42 178.5q0 100 -42 179t-112.5 122t-156.5 43t-157 -43t-113 -122t-42 -179z" />
<glyph unicode="&#xf3;" horiz-adv-x="1257" d="M72 547q0 164 73.5 294t200.5 202.5t283 72.5q154 0 281.5 -72.5t201.5 -202.5t74 -294t-74 -294t-202 -201.5t-281 -71.5q-156 0 -283 71.5t-200.5 201.5t-73.5 294zM317 547q0 -100 42 -178t113 -121t157 -43t156.5 43t112.5 120.5t42 178.5q0 100 -42 179t-112.5 122 t-156.5 43t-157 -43t-113 -122t-42 -179zM573 1233q0 18 12 39l119 209q20 37 49 59.5t64 22.5q55 0 82.5 -28.5t25.5 -73.5q-4 -47 -39 -88l-155 -172q-33 -35 -92 -35q-21 0 -44.5 18.5t-21.5 48.5z" />
<glyph unicode="&#xf4;" horiz-adv-x="1257" d="M72 547q0 164 73.5 294t200.5 202.5t283 72.5q154 0 281.5 -72.5t201.5 -202.5t74 -294t-74 -294t-202 -201.5t-281 -71.5q-156 0 -283 71.5t-200.5 201.5t-73.5 294zM317 547q0 -100 42 -178t113 -121t157 -43t156.5 43t112.5 120.5t42 178.5q0 100 -42 179t-112.5 122 t-156.5 43t-157 -43t-113 -122t-42 -179zM354 1278q0 18 4 30.5t21 32.5l100 127q47 59 125 60h74q41 0 64.5 -12.5t45.5 -47.5l90 -127q17 -20 21 -32.5t4 -30.5q0 -20 -17.5 -35.5t-44.5 -15.5q-31 0 -46 8t-30.5 21.5t-23.5 19.5l-108 96l-117 -96q-8 -6 -25.5 -21.5 t-34 -21.5t-41.5 -6q-27 0 -44 15t-17 36z" />
<glyph unicode="&#xf5;" horiz-adv-x="1257" d="M72 547q0 164 73.5 294t200.5 202.5t283 72.5q154 0 281.5 -72.5t201.5 -202.5t74 -294t-74 -294t-202 -201.5t-281 -71.5q-156 0 -283 71.5t-200.5 201.5t-73.5 294zM242 1348q0 72 65.5 126t186.5 54q53 0 97 -21.5t101 -60.5q35 -27 58.5 -39t44.5 -12q23 0 35 12 t6 31q-4 10 -4 28q0 33 21.5 52.5t54.5 19.5q47 0 79.5 -37t32.5 -98q0 -39 -24.5 -82t-76.5 -72.5t-132 -29.5q-41 0 -86 20.5t-107 56.5q-49 29 -76.5 42.5t-50.5 13.5t-35 -12.5t-6 -30.5q4 -10 4 -29q0 -33 -21.5 -52.5t-53.5 -19.5q-48 0 -80.5 38t-32.5 102zM317 547 q0 -100 42 -178t113 -121t157 -43t156.5 43t112.5 120.5t42 178.5q0 100 -42 179t-112.5 122t-156.5 43t-157 -43t-113 -122t-42 -179z" />
<glyph unicode="&#xf6;" horiz-adv-x="1257" d="M72 547q0 164 73.5 294t200.5 202.5t283 72.5q154 0 281.5 -72.5t201.5 -202.5t74 -294t-74 -294t-202 -201.5t-281 -71.5q-156 0 -283 71.5t-200.5 201.5t-73.5 294zM299 1331v37q0 55 30 78.5t91 23.5q74 0 102.5 -22.5t28.5 -79.5v-37q0 -59 -29.5 -80.5t-101.5 -21.5 q-64 0 -92.5 23.5t-28.5 78.5zM317 547q0 -100 42 -178t113 -121t157 -43t156.5 43t112.5 120.5t42 178.5q0 100 -42 179t-112.5 122t-156.5 43t-157 -43t-113 -122t-42 -179zM707 1331v37q0 57 30.5 79.5t94.5 22.5q68 0 97.5 -23.5t29.5 -78.5v-37q0 -59 -30 -80.5 t-101 -21.5q-64 0 -92.5 23.5t-28.5 78.5z" />
<glyph unicode="&#xf7;" horiz-adv-x="1267" d="M102 586q0 47 35 78.5t86 31.5h821q51 0 86 -31.5t35 -78.5t-34.5 -81t-86.5 -34h-821q-51 0 -86 34t-35 81zM461 209q0 65 47 112.5t113 47.5t111.5 -47.5t45.5 -112.5q0 -63 -46 -110.5t-111 -47.5q-66 0 -113 46t-47 112zM461 952q0 66 47 113t113 47t111.5 -47 t45.5 -113q0 -63 -46 -110t-111 -47q-66 0 -113 46t-47 111z" />
<glyph unicode="&#xf8;" horiz-adv-x="1257" d="M72 547q0 164 73.5 294t200.5 202.5t283 72.5q164 0 297 -82l43 49q31 37 78 37q43 0 73.5 -29.5t30.5 -72.5q0 -37 -27 -68l-47 -55q109 -151 109 -348q0 -164 -74 -294t-202 -201.5t-281 -71.5q-145 0 -275 67l-65 -78q-31 -37 -78 -37q-43 0 -74 31t-31 70q0 41 27 69 l64 76q-125 154 -125 369zM317 547q0 -102 41 -178l416 485q-63 37 -145 37q-86 0 -157 -43t-113 -122t-42 -179zM510 229q55 -25 119 -24q86 0 156.5 43t112.5 120.5t42 178.5q0 84 -29 153z" />
<glyph unicode="&#xf9;" horiz-adv-x="1202" d="M133 451v520q0 53 35 89t88 36t88 -36t35 -89v-520q0 -125 55 -185.5t166 -60.5q113 0 168 60.5t55 185.5v520q0 53 35 89t88 36t88 -36t35 -89v-520q0 -221 -122 -346t-347 -125t-346 124.5t-121 346.5zM280 1397q0 43 35 71.5t74 28.5q47 0 100 -45l176 -156 q29 -27 29 -55q0 -33 -23.5 -53.5t-62.5 -20.5q-22 1 -47 13l-205 108q-37 20 -56.5 49t-19.5 60z" />
<glyph unicode="&#xfa;" horiz-adv-x="1202" d="M133 451v520q0 53 35 89t88 36t88 -36t35 -89v-520q0 -125 55 -185.5t166 -60.5q113 0 168 60.5t55 185.5v520q0 53 35 89t88 36t88 -36t35 -89v-520q0 -221 -122 -346t-347 -125t-346 124.5t-121 346.5zM547 1233q0 18 12 39l119 209q20 37 49 59.5t64 22.5 q55 0 82.5 -28.5t25.5 -73.5q-4 -47 -39 -88l-155 -172q-33 -35 -92 -35q-21 0 -44.5 18.5t-21.5 48.5z" />
<glyph unicode="&#xfb;" horiz-adv-x="1202" d="M133 451v520q0 53 35 89t88 36t88 -36t35 -89v-520q0 -125 55 -185.5t166 -60.5q113 0 168 60.5t55 185.5v520q0 53 35 89t88 36t88 -36t35 -89v-520q0 -221 -122 -346t-347 -125t-346 124.5t-121 346.5zM328 1278q0 18 4 30.5t21 32.5l100 127q47 59 125 60h74 q41 0 64.5 -12.5t45.5 -47.5l90 -127q17 -20 21 -32.5t4 -30.5q0 -20 -17.5 -35.5t-44.5 -15.5q-31 0 -46 8t-30.5 21.5t-23.5 19.5l-108 96l-117 -96q-8 -6 -25.5 -21.5t-34 -21.5t-41.5 -6q-27 0 -44 15t-17 36z" />
<glyph unicode="&#xfc;" horiz-adv-x="1202" d="M133 451v520q0 53 35 89t88 36t88 -36t35 -89v-520q0 -125 55 -185.5t166 -60.5q113 0 168 60.5t55 185.5v520q0 53 35 89t88 36t88 -36t35 -89v-520q0 -221 -122 -346t-347 -125t-346 124.5t-121 346.5zM272 1331v37q0 55 30 78.5t91 23.5q74 0 102.5 -22.5t28.5 -79.5 v-37q0 -59 -29.5 -80.5t-101.5 -21.5q-64 0 -92.5 23.5t-28.5 78.5zM680 1331v37q0 57 30.5 79.5t94.5 22.5q68 0 97.5 -23.5t29.5 -78.5v-37q0 -59 -30 -80.5t-101 -21.5q-64 0 -92.5 23.5t-28.5 78.5z" />
<glyph unicode="&#xfd;" horiz-adv-x="1202" d="M133 373v598q0 53 35 89t88 36t88 -36t35 -89v-525q0 -129 56.5 -185t164.5 -56q106 0 164.5 62.5t58.5 178.5v525q0 53 35 89t88 36t88 -36t35 -89v-871q0 -266 -143.5 -388t-382.5 -122q-70 0 -142.5 11.5t-117.5 29.5q-100 43 -101 119q0 14 6 33q12 45 42 68.5 t65 23.5q20 0 39 -6q14 -6 50 -20.5t76 -23.5t83 -9q145 0 213.5 62.5t68.5 213.5v21q-106 -133 -331 -133q-106 0 -188.5 50t-127.5 139t-45 204zM547 1233q0 18 12 39l119 209q20 37 49 59.5t64 22.5q55 0 82.5 -28.5t25.5 -73.5q-4 -47 -39 -88l-155 -172 q-33 -35 -92 -35q-21 0 -44.5 18.5t-21.5 48.5z" />
<glyph unicode="&#xfe;" d="M133 -285v1676q0 53 35 89t88 36t88 -36t35 -89v-428q49 61 137 107t184 46q142 0 256.5 -72.5t181 -201.5t66.5 -293t-65.5 -294t-179 -202.5t-250.5 -72.5q-98 0 -185.5 39.5t-144.5 97.5v-402q0 -53 -35 -89t-88 -36t-88 35t-35 90zM369 549q0 -147 84 -245.5 t217 -98.5q131 0 215 98t84 246q0 147 -83 244.5t-216 97.5t-217 -97.5t-84 -244.5z" />
<glyph unicode="&#xff;" horiz-adv-x="1202" d="M133 373v598q0 53 35 89t88 36t88 -36t35 -89v-525q0 -129 56.5 -185t164.5 -56q106 0 164.5 62.5t58.5 178.5v525q0 53 35 89t88 36t88 -36t35 -89v-871q0 -266 -143.5 -388t-382.5 -122q-70 0 -142.5 11.5t-117.5 29.5q-100 43 -101 119q0 14 6 33q12 45 42 68.5 t65 23.5q20 0 39 -6q14 -6 50 -20.5t76 -23.5t83 -9q145 0 213.5 62.5t68.5 213.5v21q-106 -133 -331 -133q-106 0 -188.5 50t-127.5 139t-45 204zM272 1331v37q0 55 30 78.5t91 23.5q74 0 102.5 -22.5t28.5 -79.5v-37q0 -59 -29.5 -80.5t-101.5 -21.5q-64 0 -92.5 23.5 t-28.5 78.5zM680 1331v37q0 57 30.5 79.5t94.5 22.5q68 0 97.5 -23.5t29.5 -78.5v-37q0 -59 -30 -80.5t-101 -21.5q-64 0 -92.5 23.5t-28.5 78.5z" />
<glyph unicode="&#x131;" horiz-adv-x="483" d="M119 125v846q0 53 34.5 89t88.5 36q53 0 88 -36t35 -89v-846q0 -53 -35 -89t-88 -36t-88 36t-35 89z" />
<glyph unicode="&#x152;" horiz-adv-x="1980" d="M82 717q0 201 72.5 363.5t211 258t330.5 95.5h1078q53 0 88.5 -36t35.5 -89q0 -51 -35.5 -86t-88.5 -35h-545v-361h452q53 0 89 -35.5t36 -89.5q0 -51 -35.5 -85.5t-89.5 -34.5h-452v-336h545q53 0 88.5 -36t35.5 -89q0 -51 -35.5 -86t-88.5 -35h-1078q-193 0 -331 95 t-210.5 258t-72.5 364zM328 717q0 -209 92 -340t276 -131h287v942h-287q-184 0 -276 -132t-92 -339z" />
<glyph unicode="&#x153;" horiz-adv-x="2058" d="M72 547q0 164 73.5 294t200.5 202.5t283 72.5q131 0 243.5 -53t190.5 -150q74 98 180.5 150.5t224.5 52.5q135 0 255 -73.5t192 -198.5t72 -271q-2 -49 -39 -79.5t-86 -30.5h-676q25 -121 112.5 -189.5t198.5 -68.5q84 0 131 15.5t75 32.5t38 23q37 18 69 19q43 0 74 -31 t31 -71q0 -55 -57 -101q-57 -47 -153.5 -79.5t-195.5 -32.5q-143 0 -258.5 52t-191.5 144q-76 -92 -188.5 -144t-241.5 -52q-156 0 -283 71.5t-200.5 201.5t-73.5 294zM317 547q0 -100 42 -178t113 -121t157 -43t156.5 43t112.5 120.5t42 178.5q0 100 -42 179t-112.5 122 t-156.5 43t-157 -43t-113 -122t-42 -179zM1188 668h536v14q-8 86 -83.5 147.5t-172.5 61.5q-237 0 -280 -223z" />
<glyph unicode="&#x178;" horiz-adv-x="1220" d="M35 1315q0 53 42 89t89 36q57 0 100 -58l361 -497l338 493q43 61 102 62q49 0 86 -37t37 -90q0 -41 -23 -76l-428 -612v-500q0 -53 -34.5 -89t-83.5 -36q-51 0 -87 36t-36 89v528l-426 566q-37 49 -37 96zM280 1659v37q0 57 31 79.5t94 22.5q68 0 97.5 -23.5t29.5 -78.5 v-37q0 -57 -29.5 -80t-99.5 -23q-66 0 -94.5 24t-28.5 79zM688 1659v37q0 57 29.5 79.5t93.5 22.5q70 0 99.5 -22.5t29.5 -79.5v-37q0 -57 -30 -80t-99 -23q-66 0 -94.5 24t-28.5 79z" />
<glyph unicode="&#x192;" horiz-adv-x="997" d="M39 98q0 49 25.5 74t66.5 25q14 0 35.5 -4.5t34.5 -4.5q35 0 55 40t33 106l71 395h-86q-45 0 -74.5 29.5t-29.5 75.5q0 45 29.5 73.5t74.5 28.5h123l35 190q29 160 113 239t246 79q63 0 112 -10q49 -11 72.5 -38.5t23.5 -64.5q0 -43 -24.5 -71.5t-63.5 -28.5l-73 2 q-72 0 -111 -37t-55 -121l-25 -139h156q45 0 74.5 -28.5t29.5 -73.5t-28.5 -75t-75.5 -30h-193l-78 -432q-29 -164 -114.5 -235.5t-245.5 -71.5q-133 0 -133 108z" />
<glyph unicode="&#x2c6;" horiz-adv-x="784" d="M102 1278q0 18 4.5 30.5t20.5 32.5l100 127q47 59 125 60h74q41 0 64.5 -12.5t46.5 -47.5l90 -127q16 -20 20 -32.5t4 -30.5q0 -20 -17.5 -35.5t-43.5 -15.5q-31 0 -46.5 8t-30.5 21.5t-24 19.5l-108 96l-117 -96q-8 -6 -25.5 -21.5t-34 -21.5t-40.5 -6q-27 0 -44.5 15 t-17.5 36z" />
<glyph unicode="&#x2c7;" horiz-adv-x="765" d="M102 1468q0 27 21.5 43.5t62.5 16.5q37 0 93 -47l102 -88l102 88q33 27 54.5 37t58.5 10q27 0 47.5 -15.5t20.5 -37.5q0 -33 -33 -72l-90 -113q-25 -33 -54.5 -47t-70.5 -14h-74q-41 0 -70.5 14t-54.5 47l-90 113q-25 33 -25 65z" />
<glyph unicode="&#x2d8;" horiz-adv-x="872" d="M102 1464q0 31 19.5 49.5t50.5 18.5q41 0 66.5 -17.5t56.5 -56.5q49 -55 141 -55t142 55q31 39 56 56.5t66 17.5q31 0 50.5 -17.5t19.5 -48.5q0 -20 -8 -43q-39 -94 -124 -144t-202 -50t-201.5 49t-121.5 141q-10 27 -11 45z" />
<glyph unicode="&#x2d9;" horiz-adv-x="462" d="M102 1331v39q0 57 31 80t94 23q76 0 104.5 -23t28.5 -80v-39q0 -59 -30.5 -80.5t-102.5 -21.5q-67 0 -96 22.5t-29 79.5z" />
<glyph unicode="&#x2da;" horiz-adv-x="671" d="M102 1452q0 94 70 160.5t164 66.5t163.5 -66.5t69.5 -160.5q0 -59 -32.5 -110.5t-86 -82t-114.5 -30.5q-62 0 -115 30.5t-86 82t-33 110.5zM246 1452q0 -35 25.5 -57.5t64.5 -22.5t64.5 22.5t25.5 57.5q0 41 -26.5 62.5t-63.5 21.5q-39 0 -64.5 -22.5t-25.5 -61.5z" />
<glyph unicode="&#x2db;" horiz-adv-x="649" d="M74 -205q0 147 104.5 218t270.5 116l94 -23q8 -16 8 -34q0 -25 -13.5 -46.5t-43.5 -29.5q-98 -29 -158 -68t-60 -88q0 -35 18.5 -54t45.5 -19q25 0 43 24q29 37 84 37q39 0 64.5 -26.5t25.5 -71.5q0 -33 -34 -70t-89 -60.5t-115 -23.5q-108 0 -176.5 55.5t-68.5 163.5z " />
<glyph unicode="&#x2dc;" horiz-adv-x="937" d="M82 1348q0 72 65.5 126t186.5 54q41 0 82 -18.5t100 -55.5q41 -27 68.5 -40t50.5 -13t35 12t6 31q-4 10 -4 29q0 33 21.5 52t54.5 19q47 0 79.5 -40t32.5 -101q0 -39 -24.5 -82t-76.5 -72.5t-132 -29.5q-41 0 -85 19t-108 54q-45 27 -74.5 40.5t-52.5 13.5t-35 -12.5 t-6 -30.5q4 -10 4 -29q0 -33 -21.5 -52.5t-53.5 -19.5q-47 0 -80 40t-33 106z" />
<glyph unicode="&#x2dd;" horiz-adv-x="901" d="M102 1280q0 33 25 72l84 131q33 55 84 55t90 -26.5t39 -65.5q0 -35 -37 -70l-100 -96q-37 -35 -59.5 -49t-59.5 -14q-29 0 -47.5 19t-18.5 44zM475 1278q0 33 27 74l86 133q35 53 82 53q51 0 90 -26.5t39 -65.5q0 -35 -37 -70l-103 -96q-37 -35 -59 -49t-59 -14 q-29 0 -47.5 18t-18.5 43z" />
<glyph unicode="&#x3c0;" horiz-adv-x="1208" d="M41 956q0 43 28.5 71t71.5 28h897q43 0 72 -29t29 -72t-29 -70.5t-72 -27.5h-32q-10 0 -11 -10v-746q0 -43 -28.5 -71.5t-71.5 -28.5t-70.5 28.5t-27.5 71.5v746q0 10 -11 10h-393q-10 0 -10 -10v-746q0 -43 -28.5 -71.5t-71.5 -28.5t-71 28.5t-28 71.5v746q0 10 -10 10 h-33q-43 0 -71.5 28.5t-28.5 71.5z" />
<glyph unicode="&#x2000;" horiz-adv-x="924" />
<glyph unicode="&#x2001;" horiz-adv-x="1849" />
<glyph unicode="&#x2002;" horiz-adv-x="924" />
<glyph unicode="&#x2003;" horiz-adv-x="1849" />
<glyph unicode="&#x2004;" horiz-adv-x="616" />
<glyph unicode="&#x2005;" horiz-adv-x="462" />
<glyph unicode="&#x2006;" horiz-adv-x="308" />
<glyph unicode="&#x2007;" horiz-adv-x="308" />
<glyph unicode="&#x2008;" horiz-adv-x="231" />
<glyph unicode="&#x2009;" horiz-adv-x="369" />
<glyph unicode="&#x200a;" horiz-adv-x="102" />
<glyph unicode="&#x2010;" horiz-adv-x="811" d="M102 629q0 51 36 86t89 35h357q53 0 89 -36t36 -89q0 -51 -36 -85t-89 -34h-357q-53 0 -89 34.5t-36 88.5z" />
<glyph unicode="&#x2011;" horiz-adv-x="811" d="M102 629q0 51 36 86t89 35h357q53 0 89 -36t36 -89q0 -51 -36 -85t-89 -34h-357q-53 0 -89 34.5t-36 88.5z" />
<glyph unicode="&#x2012;" horiz-adv-x="811" d="M102 629q0 51 36 86t89 35h357q53 0 89 -36t36 -89q0 -51 -36 -85t-89 -34h-357q-53 0 -89 34.5t-36 88.5z" />
<glyph unicode="&#x2013;" horiz-adv-x="1056" d="M102 629q0 51 36 83.5t89 32.5h602q53 0 89 -32.5t36 -83.5t-35.5 -85t-89.5 -34h-602q-53 0 -89 34t-36 85z" />
<glyph unicode="&#x2014;" horiz-adv-x="1814" d="M102 629q0 51 36 83.5t89 32.5h1360q53 0 89 -32.5t36 -83.5t-36 -85t-89 -34h-1360q-53 0 -89 34t-36 85z" />
<glyph unicode="&#x2018;" horiz-adv-x="563" d="M57 1147q0 47 35 118.5t90.5 125t114.5 53.5q45 0 71.5 -19.5t26.5 -62.5q0 -33 -16.5 -46t-35.5 -19.5t-28 -10.5q-57 -31 -57 -82q0 -23 21.5 -40t56.5 -17t57 14q25 -10 38 -26.5t13 -49.5q0 -41 -30.5 -76.5t-75.5 -57t-88 -21.5q-90 0 -141.5 56t-51.5 161z" />
<glyph unicode="&#x2019;" horiz-adv-x="563" d="M57 1288q0 41 31 77t76 57.5t88 21.5q90 0 141 -56.5t51 -160.5q0 -47 -34.5 -119t-90 -125t-114.5 -53q-45 0 -72 19.5t-27 62.5q0 33 16.5 46t36 19t27.5 10q57 31 58 82q0 23 -21.5 40.5t-56.5 17.5t-57 -15q-25 10 -38.5 26.5t-13.5 49.5z" />
<glyph unicode="&#x201a;" horiz-adv-x="563" d="M57 78q0 41 31 76.5t76 57t88 21.5q90 0 141 -56t51 -161q0 -47 -34.5 -118.5t-90 -125t-114.5 -53.5q-45 0 -72 19.5t-27 62.5q0 33 16.5 46.5t36 19.5t27.5 10q57 31 58 82q0 23 -21.5 40t-56.5 17t-57 -14q-25 10 -38.5 26.5t-13.5 49.5z" />
<glyph unicode="&#x201c;" horiz-adv-x="931" d="M30 1133q0 47 35 118.5t90.5 125t114.5 53.5q45 0 71.5 -19.5t26.5 -62.5q0 -33 -16.5 -46t-35.5 -19.5t-28 -10.5q-57 -31 -57 -82q0 -23 21.5 -40t56.5 -17t57 14q25 -10 38 -26.5t13 -49.5q0 -41 -30.5 -76.5t-75.5 -57t-88 -21.5q-90 0 -141.5 56t-51.5 161z M483 1133q0 47 35 118.5t90.5 125t114.5 53.5q45 0 71.5 -19.5t26.5 -62.5q0 -33 -16.5 -46t-35.5 -19.5t-28 -10.5q-57 -31 -57 -82q0 -23 21.5 -40t56.5 -17t57 14q25 -10 38 -26.5t13 -49.5q0 -41 -30.5 -76.5t-75.5 -57t-88 -21.5q-90 0 -141.5 56t-51.5 161z" />
<glyph unicode="&#x201d;" horiz-adv-x="931" d="M31 1241q0 41 30.5 77t75.5 57.5t88 21.5q90 0 141.5 -56.5t51.5 -160.5q0 -47 -35 -119t-90 -125t-115 -53q-45 0 -71.5 19.5t-26.5 62.5q0 33 16.5 46t36 19t27.5 10q57 31 57 82q0 23 -21.5 40.5t-56.5 17.5t-57 -15q-25 10 -38 26.5t-13 49.5zM483 1241q0 41 31 77 t76 57.5t88 21.5q90 0 141 -56.5t51 -160.5q0 -47 -34.5 -119t-90 -125t-114.5 -53q-45 0 -72 19.5t-27 62.5q0 33 16.5 46t36 19t27.5 10q57 31 58 82q0 23 -21.5 40.5t-56.5 17.5t-57 -15q-25 10 -38.5 26.5t-13.5 49.5z" />
<glyph unicode="&#x201e;" horiz-adv-x="888" d="M61 78q0 41 31 76.5t76 57t88 21.5q90 0 141 -56t51 -161q0 -47 -34.5 -118.5t-90 -125t-114.5 -53.5q-45 0 -72 19.5t-27 62.5q0 33 16.5 46.5t36 19.5t27.5 10q57 31 58 82q0 23 -21.5 40t-56.5 17t-57 -14q-25 10 -38.5 26.5t-13.5 49.5zM491 78q0 41 31 76.5t76 57 t88 21.5q90 0 141 -56t51 -161q0 -47 -34.5 -118.5t-90 -125t-114.5 -53.5q-45 0 -72 19.5t-27 62.5q0 33 16.5 46.5t36 19.5t27.5 10q57 31 58 82q0 23 -21.5 40t-56.5 17t-57 -14q-25 10 -38.5 26.5t-13.5 49.5z" />
<glyph unicode="&#x2020;" horiz-adv-x="946" d="M92 1112q0 45 30 73.5t75 28.5h151v156q0 53 35 89t88 36t88 -36t35 -89v-156h156q45 0 74.5 -28.5t29.5 -73.5t-29.5 -73.5t-74.5 -28.5h-156v-414q0 -53 -35 -89t-88 -36t-88 36t-35 89v414h-151q-45 0 -75 28.5t-30 73.5z" />
<glyph unicode="&#x2021;" horiz-adv-x="843" d="M92 870q0 45 30 74t75 29h110v82h-110q-45 0 -75 28.5t-30 73.5t30 74t75 29h110v116q0 53 35 89t88 36t88 -35.5t35 -89.5v-116h94q45 0 75 -29t30 -74t-30 -73.5t-75 -28.5h-94v-82h94q45 0 75 -29t30 -74t-30 -73.5t-75 -28.5h-94v-236q0 -53 -35 -88.5t-88 -35.5 t-88 35.5t-35 88.5v236h-110q-45 0 -75 28.5t-30 73.5z" />
<glyph unicode="&#x2022;" horiz-adv-x="714" d="M68 719q0 82 38.5 148.5t105.5 104.5t144 38q78 0 144.5 -38t106.5 -104.5t40 -148.5q0 -78 -39 -144.5t-106.5 -104.5t-145.5 -38q-77 0 -144 38t-105.5 104.5t-38.5 144.5z" />
<glyph unicode="&#x2026;" horiz-adv-x="1280" d="M119 125v35q0 59 31.5 91t91.5 32h26q59 0 91 -32t32 -91v-35q0 -59 -31.5 -91t-91.5 -32h-26q-60 0 -91.5 32t-31.5 91zM508 125v35q0 59 31.5 91t91.5 32h26q59 0 91 -32t32 -91v-35q0 -59 -31.5 -91t-91.5 -32h-26q-60 0 -91.5 32t-31.5 91zM889 125v35q0 59 31.5 91 t91.5 32h26q59 0 91 -32t32 -91v-35q0 -59 -31.5 -91t-91.5 -32h-26q-60 0 -91.5 32t-31.5 91z" />
<glyph unicode="&#x202f;" horiz-adv-x="369" />
<glyph unicode="&#x2030;" horiz-adv-x="2418" d="M61 1053q0 113 43 204t119 143t174 52t174 -52t118 -143.5t42 -203.5q0 -111 -44 -202t-121 -143.5t-169 -52.5q-96 0 -173 52.5t-120 143.5t-43 202zM266 1053q0 -94 35 -154.5t96 -60.5q60 0 94.5 60t34.5 155q0 96 -33.5 155.5t-95.5 59.5q-59 0 -95 -60.5t-36 -154.5 zM307 96q0 27 21 62l815 1231q37 49 84 49q37 0 71.5 -29t34.5 -72q0 -27 -20 -61l-815 -1231q-37 -49 -84 -49q-37 0 -72 28.5t-35 71.5zM940 377q0 113 43 204t119 143t174 52t174 -52t118 -143.5t42 -203.5q0 -111 -44 -202t-121 -143t-169 -52t-169 52t-122 143t-45 202 zM1145 377q0 -94 34.5 -154.5t96.5 -60.5q59 0 94 60.5t35 154.5q0 96 -34 155.5t-95 59.5q-59 0 -95 -60.5t-36 -154.5zM1688 377q0 113 43 204t118.5 143t173.5 52t174 -52t118 -143.5t42 -203.5q0 -111 -44 -202t-120.5 -143t-169.5 -52q-92 0 -168.5 52t-121.5 143 t-45 202zM1892 377q0 -94 35 -154.5t96 -60.5q60 0 94.5 60.5t34.5 154.5q0 96 -33.5 155.5t-95.5 59.5q-59 0 -95 -60.5t-36 -154.5z" />
<glyph unicode="&#x2039;" horiz-adv-x="565" d="M39 541q0 31 18 55l248 336q29 41 78 41q39 0 72.5 -30t33.5 -73q0 -35 -26 -71l-189 -256l195 -264q23 -29 23 -68q0 -49 -36 -79t-75 -30q-23 0 -44.5 11.5t-35.5 31.5l-244 338q-18 29 -18 58z" />
<glyph unicode="&#x203a;" horiz-adv-x="565" d="M39 864q0 49 36 79t75 30q23 0 44 -11.5t35 -31.5l244 -338q19 -26 19 -57t-19 -56l-248 -336q-29 -41 -78 -41q-39 0 -72.5 30t-33.5 73q0 35 27 71l188 256l-195 265q-23 29 -22 67z" />
<glyph unicode="&#x2044;" horiz-adv-x="1105" d="M41 96q0 27 20 62l816 1231q37 49 84 49q37 0 71.5 -29t34.5 -72q0 -27 -20 -61l-816 -1231q-37 -49 -84 -49q-36 0 -71 28.5t-35 71.5z" />
<glyph unicode="&#x205f;" horiz-adv-x="462" />
<glyph unicode="&#x20ac;" horiz-adv-x="1284" d="M-14 555q0 51 35.5 84t89.5 33h53v45v31h-53q-53 0 -89 33.5t-36 84.5t35.5 84t89.5 33h96q72 211 247 336t406 125q160 0 297 -80q63 -33 64 -104q0 -43 -31 -84q-33 -43 -84 -43q-35 0 -70 18q-82 47 -176 47q-127 0 -227.5 -57.5t-157.5 -157.5h258q53 0 89 -32.5 t36 -84.5q0 -51 -36 -84.5t-89 -33.5h-323v-31q0 -31 2 -45h321q53 0 89 -33t36 -84t-36 -85t-89 -34h-260q59 -104 159.5 -157.5t227.5 -53.5q100 0 176 47q37 16 66 17q53 0 90 -45q31 -39 31 -84q0 -33 -16.5 -59.5t-47.5 -41.5q-141 -80 -299 -79q-227 0 -404 117.5 t-249 338.5h-96q-53 0 -89 34t-36 85z" />
<glyph unicode="&#x2122;" horiz-adv-x="1593" d="M41 1350q0 43 22.5 63.5t59.5 20.5h399q35 0 58.5 -21.5t23.5 -62.5q0 -100 -82 -101h-108v-450q0 -37 -26 -59.5t-71 -22.5q-37 0 -63.5 23.5t-26.5 58.5v450h-104q-37 0 -59.5 28t-22.5 73zM694 778v574q0 37 25.5 59.5t64.5 22.5q45 0 70 -12.5t45 -49.5l197 -325 l190 325q23 35 49.5 48.5t57.5 13.5q61 0 89.5 -18.5t28.5 -63.5v-574q0 -35 -30.5 -58.5t-71.5 -23.5q-45 0 -73.5 23.5t-28.5 58.5v307l-129 -229q-25 -37 -91 -37q-29 0 -47 11.5t-26 25.5l-119 203v-281q-6 -37 -31.5 -59.5t-68.5 -22.5q-45 0 -73 22.5t-28 59.5z" />
<glyph unicode="&#x2202;" horiz-adv-x="1224" d="M72 547q0 154 73.5 285t191.5 207.5t241 76.5q162 0 274 -117q-59 113 -144 190t-169 89q-156 23 -156 123q0 121 125 121q176 0 324.5 -137.5t234.5 -358.5t86 -457q0 -139 -59.5 -275t-181 -225t-302.5 -89q-147 0 -271 74.5t-195.5 204.5t-71.5 288zM315 547 q0 -96 40 -175t110 -123t156 -44t155.5 44t109.5 123t40 175t-40 175t-109.5 123t-155.5 44t-156 -44t-110 -123t-40 -175z" />
<glyph unicode="&#x2206;" horiz-adv-x="1478" d="M82 102q0 18 10 45l551 1233q14 31 39 47.5t55 16.5q33 0 58.5 -17.5t40.5 -48.5l550 -1231q11 -25 11 -45q0 -14 -8 -39q-10 -29 -37 -46t-62 -17h-1102q-59 0 -88 45q-18 25 -18 57zM346 217q-6 -12 8 -12h768q14 0 8 12l-385 860q-2 6 -6 6t-8 -6z" />
<glyph unicode="&#x220f;" horiz-adv-x="1507" d="M51 1315q0 51 30 85t75 34h1196q45 0 74.5 -36t29.5 -91q0 -49 -29.5 -84t-74.5 -35h-121v-1462q0 -59 -39 -97.5t-98 -38.5q-55 0 -92 38t-37 98v1462h-422v-1462q0 -59 -40 -97.5t-100 -38.5q-55 0 -91 38t-36 98v1462h-120q-45 0 -75 36t-30 91z" />
<glyph unicode="&#x2211;" horiz-adv-x="1075" d="M80 135q0 61 47 109l412 438l-412 438q-45 47 -45 109q0 55 42 95t109 40h656q47 0 75.5 -28.5t28.5 -75.5q0 -41 -29.5 -69t-74.5 -28h-522l374 -413q29 -33 29 -68t-29 -68l-374 -415h522q45 0 74.5 -28t29.5 -71q0 -45 -28.5 -72.5t-75.5 -27.5h-656q-68 0 -110.5 40 t-42.5 95z" />
<glyph unicode="&#x221a;" horiz-adv-x="1435" d="M102 659q0 31 17.5 54.5t48.5 38.5l203 88q27 12 57 8q23 -2 44.5 -16.5t35.5 -40.5l242 -449l415 1018q29 68 92 67q43 0 75 -28.5t32 -71.5q0 -23 -8 -41l-496 -1218q-14 -37 -39.5 -52.5t-64.5 -15.5q-25 2 -49.5 17.5t-38.5 41.5l-306 553l-114 -49q-25 -10 -45 -10 q-45 0 -73 32.5t-28 73.5z" />
<glyph unicode="&#x221e;" horiz-adv-x="1763" d="M92 496q0 131 49 221t130 134t178 44q109 0 180 -40t159 -132l95 -98l92 98q86 92 158.5 132t181.5 40q96 0 177 -44t130 -134t49 -221t-49 -221.5t-130 -134.5t-177 -44q-109 0 -181.5 41t-158.5 131l-92 99l-95 -99q-90 -92 -160.5 -132t-178.5 -40q-96 0 -177.5 44 t-130.5 134.5t-49 221.5zM297 496q0 -96 48 -145.5t122 -49.5q109 0 190 88l101 107l-101 106q-86 88 -190 88q-74 0 -122 -49t-48 -145zM1006 496l100 -107q86 -88 190 -88q74 0 122 49t48 146q0 96 -48 145t-122 49q-104 0 -190 -88z" />
<glyph unicode="&#x222b;" horiz-adv-x="1189" d="M31 -188q0 61 41 106t106 45q25 0 53 -8q29 -8 50 -8q45 0 72.5 48t39.5 122l168 995q76 444 373 444q248 0 248 -155q0 -53 -32 -90t-89 -37q-25 0 -45.5 4t-26.5 6q-31 10 -59 10q-51 0 -76 -50t-39 -132l-164 -995q-74 -444 -377 -445q-243 1 -243 140z" />
<glyph unicode="&#x2248;" horiz-adv-x="1187" d="M102 348q0 96 62.5 148.5t189.5 52.5q49 0 119 -24.5t182 -71.5q158 -72 205 -72q45 0 45 37q0 6 -4 26q-6 16 -6 31q0 31 22.5 50.5t55.5 19.5q47 0 79.5 -40t32.5 -102q0 -90 -56 -147t-177 -57q-51 0 -124 24.5t-187 71.5q-166 72 -213 72q-45 0 -45 -39q0 -8 4 -25 q6 -14 6 -31q0 -33 -22.5 -51t-55.5 -18q-47 0 -80 40t-33 105zM102 743q0 96 62.5 148.5t189.5 52.5q49 0 119 -24.5t182 -71.5q158 -72 205 -72q20 0 32.5 11.5t12.5 29.5q0 6 -4 23q-6 16 -6 30q0 31 22.5 50.5t55.5 19.5q47 0 79.5 -40t32.5 -101q0 -90 -56 -147.5 t-177 -57.5q-51 0 -124 24.5t-187 71.5q-166 72 -213 72q-20 0 -32.5 -11.5t-12.5 -31.5q0 -4 4 -21q6 -14 6 -28q0 -31 -22.5 -51.5t-55.5 -20.5q-47 0 -80 40t-33 105z" />
<glyph unicode="&#x2260;" horiz-adv-x="1267" d="M102 424q0 47 35 79t86 32h248l92 172h-340q-51 0 -86 33.5t-35 80.5t35 79t86 32h461l102 188q33 61 88 62q33 0 69 -19.5t36 -54.5q0 -18 -14 -47l-70 -129h149q51 0 86 -32t35 -79t-34.5 -80.5t-86.5 -33.5h-270l-92 -172h362q52 0 86.5 -32t34.5 -79t-34.5 -81 t-86.5 -34h-485l-92 -172q-35 -61 -90 -61q-33 0 -68 20.5t-35 53.5q0 18 15 47l61 112h-127q-51 0 -86 34t-35 81z" />
<glyph unicode="&#x2264;" horiz-adv-x="1327" d="M127 115q0 47 35 78.5t86 31.5h821q51 0 86 -31.5t35 -78.5t-35 -81t-86 -34h-821q-51 0 -86 34t-35 81zM147 707q0 33 13.5 59.5t38.5 34.5l706 260q72 27 115 26q43 0 65.5 -30.5t22.5 -71.5q0 -33 -16.5 -58.5t-47.5 -37.5l-487 -178l508 -181q27 -8 40 -32.5 t13 -53.5q0 -43 -25.5 -77.5t-64.5 -34.5q-25 0 -57.5 10t-65.5 23l-706 247q-25 9 -38.5 35.5t-13.5 59.5z" />
<glyph unicode="&#x2265;" horiz-adv-x="1327" d="M127 115q0 47 35 78.5t86 31.5h821q51 0 86 -31.5t35 -78.5t-35 -81t-86 -34h-821q-51 0 -86 34t-35 81zM199 975q0 43 25.5 77.5t64.5 34.5q25 0 57.5 -10t65.5 -22l706 -248q25 -8 38 -35t13 -59q0 -33 -13 -59.5t-38 -35.5l-706 -260q-72 -27 -115 -26 q-43 0 -65.5 30.5t-22.5 71.5q0 68 63 96l488 179l-508 180q-27 10 -40 33.5t-13 52.5z" />
<glyph unicode="&#x25ca;" horiz-adv-x="1257" d="M92 682q0 31 19 55l419 592q41 53 97 53q27 0 52.5 -14t43.5 -39l424 -592q18 -25 18 -55q0 -27 -18 -55l-420 -590q-39 -53 -100 -53q-25 0 -49.5 13t-42.5 38l-424 592q-18 29 -19 55zM319 676l302 -434q8 -8 16 0l301 434q4 6 0 12l-301 432q-8 8 -16 0l-302 -432 q-2 -6 0 -12z" />
<glyph unicode="&#x25fc;" horiz-adv-x="1095" d="M0 0v1096h1096v-1096h-1096z" />
</font>
</defs>
</svg>
